<?xml version="1.0" standalone="no"?>
<!DOCTYPE svg PUBLIC "-//W3C//DTD SVG 1.1//EN" "http://www.w3.org/Graphics/SVG/1.1/DTD/svg11.dtd" >
<!--
2013-9-30: Created.
-->
<svg>
<metadata>
Created by iconfont
</metadata>
<defs>

<font id="iconfont" horiz-adv-x="1024" >
  <font-face
    font-family="iconfont"
    font-weight="500"
    font-stretch="normal"
    units-per-em="1024"
    ascent="896"
    descent="-128"
  />
    <missing-glyph />
    
    <glyph glyph-name="fanhui" unicode="&#58900;" d="M70.584592 300.349971c0-242.727207 198.066031-439.492616 442.391642-439.492616 95.002724 0 182.993754 29.769001 255.082606 80.401168 16.164145 5.179976 27.859511 20.239973 27.859511 38.024012l0.367367 3.707438c0 22.064528-18.004049 39.947827-40.213887 39.947827-12.526291 0-23.714098-5.692652-31.089066-14.613836-59.515488-42.512233-132.514059-67.566862-211.414037-67.566862-200.23544 0-362.557386 161.259754-362.557386 360.187409 0 198.922539 162.322969 360.182292 362.557386 360.182292 200.23851 0 362.562503-161.258731 362.562503-360.182292 0-54.988382-12.408611-107.095133-34.58775-153.716964l0.356111-0.354064c-8.040117-7.30436-13.085016-17.808598-13.085016-29.485545l-0.367367-3.709485c0-22.061458 18.004049-39.949874 40.213887-39.949874 12.798491 0 24.193005 5.949502 31.558763 15.207353l0.444115-0.441045c1.072425 1.933025 2.130524 3.876284 3.175319 5.827729 0.352017 0.630357 0.690732 1.2689 1.010003 1.919722 32.256658 60.992119 50.522674 130.428561 50.522674 204.109678 0 242.72516-198.066031 439.492616-442.395736 439.492616C268.650623 739.842587 70.584592 543.074108 70.584592 300.349971zM739.694839 340.36636l-310.939775-0.278339 95.353718 93.618191c15.940041 15.576767 15.940041 40.834011 0 56.412824-15.940041 15.578814-41.782615 15.578814-57.722656 0.002047L306.617329 333.257451c-1.715061-1.218758-3.356444-2.578732-4.903683-4.091178-1.679245-1.64036-3.170203-3.394307-4.496407-5.227048-5.074575-6.64842-8.080026-14.895245-8.080026-23.828708 0-14.239306 7.640004-26.727735 19.125593-33.786501L466.386126 111.078233c15.940041-15.578814 41.782615-15.578814 57.722656 0 15.940041 15.578814 15.940041 40.836057 0 56.413847l-94.538143 92.816942 310.1242 0.275269c22.541389 0 40.815591 17.860786 40.815591 39.892569C780.51043 322.50762 762.236228 340.36636 739.694839 340.36636z"  horiz-adv-x="1024" />

    
    <glyph glyph-name="zhaoming" unicode="&#59025;" d="M949.676032 400.02048 846.456832 400.02048C839.323648 400.02048 833.558528 407.246848 833.558528 416.150528 833.558528 425.073664 839.323648 432.300032 846.456832 432.300032L949.676032 432.300032C956.79488 432.300032 962.573312 425.073664 962.573312 416.150528 962.573312 407.246848 956.79488 400.02048 949.676032 400.02048ZM828.532736 99.488768C822.537216 93.494272 813.81376 92.53376 809.046016 97.302528L739.917824 166.429696C735.15008 171.198464 736.120832 179.91168 742.115328 185.906176 748.109824 191.900672 756.82304 192.871424 761.590784 188.102656L830.717952 118.975488C835.48672 114.20672 834.527232 105.483264 828.532736 99.488768ZM512.011264 158.828544C369.964032 158.828544 254.815232 276.119552 254.815232 420.818944 254.815232 522.578944 311.776256 610.79552 394.994688 654.181376L394.994688 682.935296C394.994688 748.76928 447.38048 802.12992 512.011264 802.12992 576.642048 802.12992 629.02784 748.76928 629.02784 682.935296L629.02784 654.1824C712.246272 610.79552 769.20832 522.578944 769.20832 420.818944 769.20832 276.119552 654.05952 158.828544 512.011264 158.828544ZM267.990016 188.158976C274.296832 181.85216 275.318784 172.685312 270.301184 167.668736L197.573632 94.94016C192.556032 89.923584 183.378944 90.934272 177.072128 97.240064 170.765312 103.54688 169.755648 112.724992 174.772224 117.742592L247.499776 190.470144C252.516352 195.48672 261.684224 194.465792 267.990016 188.158976ZM177.564672 400.02048 74.34752 400C67.227648 400 61.448192 407.246848 61.448192 416.150528 61.448192 425.073664 67.244032 432.300032 74.34752 432.280576L177.564672 432.300032C184.66816 432.280576 190.464 425.053184 190.464 416.150528 190.464 407.246848 184.66816 400 177.564672 400.02048ZM512.021504 94.455808C520.940544 94.455808 528.145408 88.695808 528.145408 81.600512L528.145408-21.252096C528.145408-28.347392 520.940544-34.122752 512.021504-34.122752 503.103488-34.122752 495.899648-28.347392 495.899648-21.252096L495.899648 81.600512C495.899648 88.695808 503.103488 94.455808 512.021504 94.455808Z"  horiz-adv-x="1024" />

    
    <glyph glyph-name="gonggonganquan" unicode="&#58892;" d="M512 211.828732m-51.421136 0a50.25 50.25 0 1 0 102.842273 0 50.25 50.25 0 1 0-102.842273 0ZM512.938372 595.31273c-41.10314 0-52.359508-32.745798-52.359508-77.259618s35.134195-216.429261 51.847855-216.429261 50.994418 171.403788 50.994418 216.429261S552.506553 595.31273 512.938372 595.31273zM512 819.139471c-240.320391 0-435.139471-194.818057-435.139471-435.139471s194.818057-435.139471 435.139471-435.139471 435.139471 194.818057 435.139471 435.139471S752.320391 819.139471 512 819.139471zM512-4.727419c-214.687594 0-388.727419 174.038802-388.727419 388.727419s174.038802 388.727419 388.727419 388.727419 388.727419-174.038802 388.727419-388.727419S726.687594-4.727419 512-4.727419z"  horiz-adv-x="1024" />

    
    <glyph glyph-name="jibenxinxi" unicode="&#58997;" d="M512-128C229.681231-128 0 101.68123 0 384 0 666.318769 229.681231 896 512 896 794.31877 896 1024 666.318769 1024 384 1024 101.68123 794.31877-128 512-128ZM512 822.857143C270.006857 822.857143 73.142857 625.993143 73.142857 384 73.142857 142.006857 270.006857-54.857143 512-54.857143 753.993143-54.857143 950.857143 142.006857 950.857143 384 950.857143 625.993143 753.993143 822.857143 512 822.857143ZM517.609199 680.947497C490.371628 680.947497 469.150574 673.363794 453.955369 658.215 438.760163 643.047595 431.157894 622.473894 431.157894 596.484593 431.157894 569.704353 439.049328 548.925937 454.841522 534.177265 470.633716 519.400677 491.556276 512.021687 517.609199 512.021687 542.477473 512.021687 562.803044 519.400677 578.595238 534.177265 594.378106 548.925937 602.278866 569.704353 602.278866 596.484593 602.278866 622.473894 594.58332 643.047595 579.192227 658.215 563.791806 673.363794 543.261021 680.947497 517.609199 680.947497ZM431.157894 454.327242 431.157894 82.409448C456.567191 76.519283 483.002558 73.309004 510.202817 73.309004 537.197863 73.309004 563.428016 76.472756 588.66008 82.269869L588.66008 454.327242 431.157894 454.327242Z"  horiz-adv-x="1024" />

    
    <glyph glyph-name="jiaotong" unicode="&#58887;" d="M774.656 507.392L721.92 448c-3.072-3.584-7.68-5.632-12.8-5.632h-184.832v-33.792h135.168c9.216 0 16.896-7.68 16.896-16.896v-118.784c0-9.216-7.68-16.896-16.896-16.896h-135.168v-153.088c0-8.704-5.12-15.872-14.336-15.872s-14.336 7.168-14.336 15.872v153.088h-188.928c-4.608 0-9.216 1.536-12.8 5.12l-52.736 59.392c-5.632 6.656-5.632 15.872 0 22.528l52.736 59.904c3.072 3.584 7.68 5.632 12.8 5.632h188.928v33.792h-140.288c-9.216 0-16.896 7.68-16.896 16.896v118.272c0 9.216 7.68 16.896 16.896 16.896h140.288v17.92c0 8.704 5.12 15.872 14.336 15.872s14.336-7.168 14.336-15.872v-17.92h184.832c4.608 0 9.216-2.048 12.8-5.632l52.736-58.88c5.632-6.656 5.632-15.872 0-22.528zM512 896c-282.624 0-512-229.376-512-512s229.376-512 512-512S1024 101.376 1024 384s-229.376 512-512 512z m0-967.168c-251.392 0-455.168 203.776-455.168 455.168S260.608 839.168 512 839.168s455.168-203.776 455.168-455.168-203.776-455.168-455.168-455.168z"  horiz-adv-x="1024" />

    
    <glyph glyph-name="zaixian" unicode="&#59068;" d="M512 384m-307.2 0a307.2 307.2 0 1 1 614.4 0 307.2 307.2 0 1 1-614.4 0ZM512 896C229.2224 896 0 666.7776 0 384s229.2224-512 512-512 512 229.2224 512 512S794.7776 896 512 896z m0-921.6a409.6 409.6 0 1 0 0 819.2 409.6 409.6 0 0 0 0-819.2z"  horiz-adv-x="1024" />

    
    <glyph glyph-name="bofang1-copy-copy-copy-copy" unicode="&#58880;" d="M519.767 244.163l56.313-153.403h-114.566l58.254 153.403M519.767 308.243c-7.767 0-17.476-5.825-19.419-15.534l-79.614-211.658c-3.884-13.593 5.825-25.244 19.419-25.244h157.286c13.593 0 23.301 11.651 19.419 25.244l-79.614 211.658c0 9.709-7.767 15.534-17.476 15.534zM403.259 387.857c0-64.346 52.162-116.509 116.509-116.509s116.509 52.162 116.509 116.509c0 64.346-52.162 116.509-116.509 116.509-64.346 0-116.509-52.162-116.509-116.509zM519.767 488.831c54.371 0 99.033-44.661 99.033-99.033s-44.661-100.974-99.033-100.974-99.033 44.661-99.033 99.033 44.661 100.974 99.033 100.974M519.767 523.783c-73.789 0-135.926-60.196-135.926-135.926 0-73.789 60.196-135.926 135.926-135.926 73.789 0 135.926 60.196 135.926 135.926s-62.138 135.926-135.926 135.926zM325.586 638.35c-5.825 0-11.651-1.942-15.534-5.825l-11.651-11.651c-128.159-128.159-128.159-337.874 0-466.034l1.942-1.942c1.942-1.942 3.884-5.825 7.767-7.767l1.942-1.942c3.884-1.942 7.767-3.884 11.651-3.884 13.593 0 25.244 11.651 25.244 25.244 0 7.767-3.884 15.534-9.709 19.419l-7.767 7.767c-52.429 52.429-79.614 120.391-79.614 194.181s29.127 141.753 79.614 194.181l7.767 7.767c7.767 3.884 13.593 13.593 13.593 23.301 0 15.534-11.651 27.185-25.244 27.185zM717.831 636.408c-13.593 0-25.244-11.651-25.244-25.244 0-9.709 5.825-17.476 13.593-21.36 36.895-36.895 67.963-83.498 79.614-135.926 21.36-95.149-5.825-190.297-73.789-258.26l-7.767-7.767c-5.825-3.884-11.651-11.651-11.651-21.36 0-13.593 11.651-25.244 25.244-25.244 3.884 0 9.709 1.942 13.593 3.884 3.884 1.942 5.825 3.884 7.767 7.767l1.942 1.942c69.905 69.905 104.858 165.054 95.149 264.086-7.767 79.614-46.604 153.403-102.915 209.715 0 0 0 1.942-1.942 1.942l-1.942 1.942c-1.942 1.942-5.825 3.884-11.651 3.884zM209.078 723.79c-7.767 0-13.593-3.884-19.419-9.709l-7.767-9.709c-174.763-174.763-174.763-458.267 0-633.029l5.825-5.825c3.884-7.767 11.651-11.651 19.419-11.651 13.593 0 23.301 9.709 23.301 23.301 0 7.767-3.884 13.593-9.709 17.476l-7.767 7.767c-153.403 153.403-153.403 413.605 0 567.008l7.767 7.767c5.825 3.884 9.709 11.651 9.709 19.419 3.884 15.534-7.767 27.185-21.36 27.185zM836.282 719.906c-13.593 0-23.301-9.709-23.301-23.301 0-7.767 3.884-13.593 9.709-17.476l5.825-5.825c153.403-153.403 153.403-413.605 0-567.008l-7.767-7.767c-3.884-3.884-7.767-9.709-7.767-17.476 0-13.593 9.709-23.301 23.301-23.301 7.767 0 15.534 3.884 19.419 11.651l5.825 5.825c174.763 174.763 174.763 458.267 0 633.029l-9.709 9.709c-3.884 0-9.709 1.942-15.534 1.942z"  horiz-adv-x="1024" />

    
    <glyph glyph-name="zhaoming2" unicode="&#58896;" d="M511.952979-127.896979a505.462446 505.462446 0 0 0-198.72418 40.381232c-60.914463 25.881164-115.693372 62.891387-162.824501 110.022515-47.131128 47.131128-84.141351 101.902162-110.022514 162.8245a505.462446 505.462446 0 0 0-40.381233 198.72418c0 85.708713 24.227164 176.592083 68.223569 255.928957 4.891115 7.923448 14.956887 13.657316 23.998754 13.657316 1.8194 0 5.245543-0.275667 7.679287-2.095067 9.774353-7.332734 15.421582-22.352631 7.954953-34.797013l-0.275667-0.456819-0.252038-0.472571C67.412872 540.980682 47.17106 462.990637 47.17106 384.055448c0-256.283385 208.498533-464.781919 464.781919-464.781918s464.781919 208.498533 464.781919 464.781918-208.498533 464.781919-464.781919 464.781919c-78.943064 0-156.925233-20.241811-231.780554-60.166224l-0.464696-0.252039-0.448943-0.26779c-4.938372-2.961448-10.191791-4.52881-15.208925-4.52881-7.293353 0-13.342268 3.229238-17.532401 9.349039-3.922343 11.192068-3.709686 26.692412 9.498686 34.804889 79.328998 43.996404 170.212368 68.223568 255.928957 68.223568a505.430941 505.430941 0 0 0 198.72418-40.381232c60.906587-25.873288 115.693372-62.891387 162.824501-110.022515 47.123252-47.123252 84.141351-101.902162 110.022515-162.824501 26.794802-63.072539 40.381232-129.933526 40.381232-198.72418s-13.58643-135.659517-40.381232-198.72418c-25.881164-60.914463-62.891387-115.693372-110.022515-162.824501-47.131128-47.131128-101.910038-84.141351-162.824501-110.022514a505.525456 505.525456 0 0 0-198.716304-40.373356zM511.952979 728.654566c64.419368 0 122.577164-25.298326 164.620272-66.309654s67.995159-97.719904 67.995159-160.540405c0-41.877709-11.633134-81.573712-32.205746-115.165668a228.425297 228.425297 0 0 0-76.052502-76.343921v-23.549812l8.955229 0.866381 17.445764 1.307448 6.710515-15.705125c5.812629-13.082354 8.49841-25.739393 8.49841-38.388556 0-13.082354-3.126848-25.739393-8.49841-37.514299l-1.787896-3.930219 2.228963-4.796601c5.812629-13.082354 8.49841-25.739393 8.49841-38.388556 0-13.082354-3.126848-25.739393-8.49841-37.522174l-5.820506-12.641287-13.869972-1.315324-263.482225-22.683431-18.343649-1.748514-6.261572 16.579382c-4.024734 10.900649-7.608401 22.242364-8.049467 34.899403-0.448943 13.082354 1.787895 26.61365 8.49841 41.003452l1.338952 3.055962-2.236838 5.678734c-4.024734 10.908525-7.600525 22.242364-8.049467 34.899403-0.448943 13.09023 1.787895 26.61365 8.49841 41.003451l5.812629 12.223849 13.869973 1.307448 9.845239 0.866381v41.877708c-32.205746 18.761087-59.047805 45.374737-78.730407 76.784988-21.478373 34.458336-33.552574 74.595407-33.552575 117.78844 0 62.820501 25.944174 119.529078 67.995159 160.540405 42.050985 40.562385 100.657723 65.860711 164.628148 65.860711z m-50.998338-270.035216c4.024734-1.748514 8.049467-3.055962 11.633135-3.055962 4.922619 0 9.38842 1.748514 13.869972 5.237667l3.575791 3.055963 4.024734-3.055963c6.261572-4.7966 11.633134-7.411496 17.004697-7.411496 4.914743 0 9.837363 2.181705 14.311039 6.978306l4.024734 3.930219 4.473676-3.489152c6.710515-5.670858 12.964211-7.411496 19.233659-6.545115 5.371562 0.433191 11.184191 2.614895 16.555754 5.237667l8.49841 13.52342 20.572612-12.215972-50.100452-78.08456v-103.390762l38.91626 3.489153v54.967938l12.523144 6.545115c29.078898 15.705125 53.235176 38.396432 70.231997 66.309654a176.568454 176.568454 0 0 1 25.503107 91.615856c0 49.730271-20.580488 94.663942-54.133062 126.94845a185.996255 185.996255 0 0 1-130.169812 52.786233c-50.998338 0-97.074057-20.068535-130.177688-52.786233-33.552574-32.717698-54.133062-77.651369-54.133062-126.94845a178.159445 178.159445 0 0 1 26.393117-93.356494 182.357455 182.357455 0 0 1 72.917778-66.309654l12.972087-6.537239v-57.59071h40.704156V383.149686l-49.210443 77.651369 20.580488 12.215973 9.404172-14.397678z m98.413009-15.271934c-1.795772-0.433191-3.575791-0.433191-4.922619-0.874258-8.049467-0.874257-16.106811 0.874257-24.148403 6.104049-6.269448-4.7966-12.972087-6.978305-19.690478-6.978306-6.710515 0.441067-13.42103 2.622772-20.123668 7.419372-5.820505-3.930219-11.633134-5.670858-17.894706-5.237667h-2.236839l33.103632-51.911976 1.787895-3.055962v-111.243325h19.690478V388.820544l1.787896 3.055962 32.646812 51.47091z m21.91944-364.265967l-132.863469-11.333839c4.473677-31.851317 32.205746-56.283262 66.207263-56.283262 37.128365 0 66.656206 29.228546 66.656206 65.002206v2.614895z m48.312557 75.04435l-227.700687-19.635345c-0.448943-2.173829-0.448943-4.7966-0.448943-6.978305 0-0.874257 0-2.181705 0.448943-3.055962l227.251744 19.627468c0.448943 2.181705 0.448943 3.922343 0.448943 6.104048v3.938096z m0 84.629674l-227.700687-19.635344c-0.448943-2.173829-0.448943-4.788724-0.448943-6.978306 0-0.866381 0-2.181705 0.448943-3.055962l227.251744 19.627468c0.448943 1.748514 0.448943 3.930219 0.448943 6.104049v3.938095z"  horiz-adv-x="1024" />

    
    <glyph glyph-name="lixian" unicode="&#59257;" d="M512 64c-176.448 0-320 143.552-320 320S335.552 704 512 704s320-143.552 320-320-143.552-320-320-320m0 704C300.256 768 128 595.744 128 384s172.256-384 384-384 384 172.256 384 384S723.744 768 512 768M645.536 422.4h-256a32 32 0 0 1 0-64h256a32 32 0 0 1 0 64"  horiz-adv-x="1024" />

    
    <glyph glyph-name="fanhuishouye" unicode="&#58936;" d="M991.205737 452.886156L602.975548 857.089946A125.280136 125.280136 0 0 1 511.997697 896c-34.558272 0-66.863857-13.823309-90.926653-38.910054L32.892053 452.834958c-40.087596-41.725914-34.967852-77.717714-28.312185-92.820959 4.761362-10.751462 20.632568-40.036398 66.556672-40.036398H128.016896v-310.870856c0-70.652467 50.685466-137.106745 122.669067-137.106745h165.316534v329.045948c0 35.223839-5.324534 54.986051 30.718464 54.98605h130.60467c35.9918 0 30.718464-19.60862 30.718464-54.98605V-127.948803h165.162942c71.983601 0 122.669067 66.505475 122.669066 137.106745V320.028799h56.931554c45.924104 0 61.79531 29.438528 66.556672 40.036398 6.655667 15.103245 11.775411 51.095045-28.158592 92.820959zM952.807657 384.025599h-120.928354v-374.867657c0-35.223839-22.731663-73.00755-58.774661-73.00755h-101.217339v264.946753c0 70.60127-22.629269 118.931653-94.664067 118.931654H446.618566c-71.983601 0-94.612869-48.330383-94.612869-118.931654v-265.049147H250.73716c-35.9918 0-58.774661 37.732513-58.774661 72.956352v374.867656H70.982948c-1.177541 0-2.099095 4.40298-3.071846 4.505375 2.303885 3.839808 6.143693 13.669717 12.492175 20.274186L468.73586 812.548173c11.519424 12.184991 27.902605 19.455027 43.773812 19.352632 15.871206 0.102395 31.230438-7.321234 42.903455-19.352632l388.178991-403.743013c6.348483-6.655667 10.188291-16.434378 12.287385-20.274187-0.767962-0.153592-1.843108-4.505375-3.071846-4.505374z"  horiz-adv-x="1024" />

    
    <glyph glyph-name="yunweiguanli-" unicode="&#58897;" d="M512.655 894.848c-282.409 0-511.345-228.936-511.345-511.345s228.936-511.35 511.345-511.35 511.345 228.936 511.345 511.345-228.936 511.35-511.345 511.35zM512.655-67.461c-249.057 0-450.959 201.902-450.959 450.959s201.902 450.959 450.959 450.959 450.959-201.902 450.959-450.959-201.902-450.959-450.959-450.959zM796.329 197.171l-149.955 149.949c-3.271 3.272-7.79 5.296-12.782 5.296s-9.511-2.024-12.782-5.296l-19.057-19.057-31.887 31.887-8.12 69.949-30.915-30.915-176.988 176.993 31.836 31.836-113.326 64.655-48.671-48.671 64.65-113.326 31.836 31.836 177.239-177.239-32.763-32.763 74.127-8.607 29.307-29.307-19.057-19.057c-3.272-3.271-5.296-7.79-5.296-12.782s2.024-9.511 5.296-12.782l149.949-149.955c3.271-3.272 7.79-5.296 12.782-5.296s9.511 2.024 12.782 5.296l71.782 71.782c3.277 3.272 5.303 7.794 5.303 12.79 0 4.991-2.023 9.509-5.293 12.78zM702.013 129.244l-123.566 123.566c-1.594 1.594-2.58 3.796-2.58 6.228 0 4.865 3.944 8.808 8.808 8.808 2.432 0 4.634-0.986 6.228-2.58l123.566-123.566c1.594-1.594 2.58-3.796 2.58-6.228 0-4.865-3.944-8.808-8.808-8.808-2.432 0-4.634 0.986-6.228 2.58zM728.238 155.464l-123.566 123.566c-1.594 1.594-2.58 3.796-2.58 6.228 0 4.865 3.944 8.808 8.808 8.808 2.432 0 4.634-0.986 6.228-2.58l123.566-123.566c1.594-1.594 2.58-3.796 2.58-6.228 0-4.865-3.944-8.808-8.808-8.808-2.432 0-4.634 0.986-6.228 2.58zM754.458 181.683l-123.566 123.566c-1.594 1.594-2.58 3.796-2.58 6.228 0 4.865 3.944 8.808 8.808 8.808 2.432 0 4.634-0.986 6.228-2.58l123.566-123.566c1.594-1.594 2.58-3.796 2.58-6.228 0-4.865-3.944-8.808-8.808-8.808-2.432 0-4.634 0.986-6.228 2.58zM555.489 496.486l-48.128-48.128c1.608-0.835 3.118-1.92 4.465-3.272l16.993-16.993 22.615 22.615c3.271 3.272 7.79 5.296 12.782 5.296s9.511-2.024 12.782-5.296l28.452-28.452c1.316-1.316 2.386-2.79 3.215-4.352l12.703 12.703c41.016-15.759 89.257-7.107 122.332 25.969 29.722 29.722 39.716 71.685 30.008 109.655l-79.171-79.171c-3.271-3.272-7.79-5.296-12.782-5.296s-9.511 2.024-12.782 5.296l-57.032 57.032c-3.272 3.271-5.296 7.79-5.296 12.782s2.024 9.511 5.296 12.782l79.171 79.171c-37.965 9.708-79.933-0.287-109.655-30.008-33.075-33.075-41.728-81.316-25.969-122.332zM414.131 223.365l64.404 64.404c-2.922 1.559-5.294 3.808-6.957 6.536l-25.847 25.131c-3.272 3.271-5.296 7.79-5.296 12.782s2.024 9.511 5.296 12.782l22.615 22.615-16.993 16.993c-2.28 2.278-3.955 5.16-4.765 8.386l-98.337-103.751c-32.404 9.236-68.716 1.101-94.228-24.417-37.473-37.473-37.473-98.222 0-135.695s98.222-37.473 135.695 0c25.513 25.523 33.644 61.834 24.412 94.234zM284.175 159.293c-22.446 22.446-22.446 58.839 0 81.285s58.839 22.446 81.285 0 22.446-58.839 0-81.285c-22.446-22.446-58.839-22.446-81.285 0z"  horiz-adv-x="1024" />

    
    <glyph glyph-name="zhaoming3" unicode="&#58901;" d="M638.976-53.248H378.368c-15.872 0-29.184-12.8-29.184-29.184 0-15.872 12.8-29.184 29.184-29.184h260.608c15.872 0 29.184 12.8 29.184 29.184s-13.312 29.184-29.184 29.184zM508.928 873.472c-199.68 0-361.984-161.792-361.984-361.984 0-120.832 59.392-231.424 157.184-298.496l3.584-2.048c1.536-0.512 4.096-2.048 7.68-4.096 5.632-3.584 11.776-7.168 17.408-11.264 11.264-8.704 17.408-16.384 17.408-16.896v-116.224c0-48.128 38.912-87.04 87.04-87.04h144.896c48.128 0 87.04 38.912 87.04 87.04V76.8v33.28 15.872V179.2c0 0.512 6.144 8.192 17.408 16.896 5.632 4.096 11.264 7.68 16.896 11.264 3.584 2.048 6.144 3.584 7.68 4.096l3.584 2.048c97.792 67.072 157.184 177.664 157.184 298.496-1.024 199.168-163.328 361.472-363.008 361.472z m72.192-839.68H436.224c-15.872 0-28.672 12.8-28.672 28.672v29.184h202.24v-28.672c0.512-16.384-12.8-29.184-28.672-29.184zM680.96 261.12c-8.192-4.608-18.944-10.752-30.72-18.944-25.088-18.944-40.448-38.4-40.448-62.976v-29.184H407.552V179.2c0 24.576-15.872 44.544-40.448 62.976-11.264 8.704-22.016 14.848-30.72 19.456A302.4896 302.4896 0 0 0 204.8 511.488c0 167.936 136.192 304.128 304.128 304.128s304.128-136.192 304.128-304.128C812.544 410.112 762.88 317.44 680.96 261.12zM909.824 769.536c-9.216 13.312-27.136 16.896-40.448 7.68-13.312-9.216-16.384-27.136-7.68-40.448 48.128-70.144 73.728-153.088 73.728-240.128 0-77.824-20.992-152.576-59.904-218.112-8.192-13.824-3.584-31.744 10.24-39.424 13.824-8.192 31.744-3.584 39.424 10.24 44.032 74.24 68.096 159.232 68.096 247.808 0.512 98.304-29.184 192.512-83.456 272.384zM81.92 497.152c0 88.064 26.624 172.032 75.776 242.688 9.216 13.312 5.632 31.232-7.168 40.448-13.312 9.216-31.232 5.632-40.448-7.168C54.272 692.224 24.064 596.992 24.064 497.152c0-91.136 25.088-178.176 71.68-254.464 8.192-13.824 26.112-17.92 39.936-9.216 13.824 8.192 17.92 26.112 9.216 39.936-40.96 66.56-62.976 143.36-62.976 223.744z"  horiz-adv-x="1024" />

    
    <glyph glyph-name="feather-blur-light-b" unicode="&#59127;" d="M981.333 832c0 12.8-12.8 21.333-21.333 21.333-4.267 0-8.533-4.267-12.8-4.267-93.867-93.867-204.8-170.667-328.533-217.6l-4.267-4.267c-4.267 0-8.533-4.267-8.533-8.533l-21.333-34.133-4.267 8.533c-4.267 8.533-17.067 12.8-29.867 8.533-59.733-25.6-119.467-59.733-166.4-102.4-4.267-4.267-4.267-8.533-4.267-17.067v-51.2c-4.267 4.267-8.533 8.533-12.8 8.533-8.533 8.533-21.333 8.533-29.867-4.267-46.933-59.733-76.8-128-98.133-204.8-4.267-12.8 4.267-21.333 12.8-25.6 8.533 0 12.8 0 21.333 4.267 68.267 59.733 119.467 93.867 162.133 128 93.867 68.267 187.733 149.333 268.8 230.4 8.533 8.533 21.333 8.533 29.867 0 8.533-8.533 8.533-21.333 0-29.867-85.333-85.333-174.933-166.4-273.067-234.667-51.2-38.4-209.067-170.667-217.6-174.933-55.467-51.2-119.467-110.933-192-183.467-8.533-8.533-8.533-21.333 0-29.867 8.533-8.533 21.333-8.533 29.867 0 59.733 59.733 115.2 115.2 166.4 162.133 17.067-4.267 29.867-4.267 46.933-4.267 81.067 0 217.6 38.4 405.333 230.4 290.133 294.4 281.6 520.533 281.6 529.067z"  horiz-adv-x="1024" />

    
    <glyph glyph-name="shezhi" unicode="&#58905;" d="M1002.37 446.234c-3.874 21.495-24.602 43.383-46.106 48.23l-16.076 3.678c-37.769 11.426-71.288 36.42-92.596 73.225-21.307 36.992-26.342 79.027-17.04 117.572l5.034 15.112c6.391 20.924-1.937 49.784-18.79 64.12 0 0-15.104 12.783-57.728 37.384-42.616 24.406-61.022 31.19-61.022 31.19-20.713 7.552-49.769 0.384-64.873-15.693l-11.238-12.007c-28.664-27.119-67.209-43.588-109.833-43.588-42.616 0-81.553 16.666-110.217 43.98l-10.846 11.615c-14.917 16.076-44.16 23.253-64.888 15.692 0 0-18.594-6.784-61.21-31.189-42.615-24.798-57.531-37.58-57.531-37.58-16.853-14.14-25.182-42.804-18.79-63.924l4.642-15.3c9.105-38.554 4.266-80.393-17.05-117.385-21.308-37.01-55.202-62.191-93.167-73.412l-15.496-3.49c-21.308-4.847-42.232-26.54-46.097-48.23 0 0-3.49-19.38-3.49-68.583 0-49.186 3.49-68.566 3.49-68.566 3.865-21.7 24.601-43.4 46.097-48.23l15.104-3.49c37.973-11.23 72.064-36.42 93.363-73.6 21.316-37.01 26.342-79.044 17.05-117.581l-4.455-14.916c-6.391-20.924 1.937-49.792 18.79-64.12 0 0 15.113-12.783 57.72-37.393 42.624-24.602 61.022-31.19 61.022-31.19 20.727-7.543 49.783-0.383 64.887 15.702l10.658 11.426c28.86 27.315 67.602 43.972 110.413 43.972s81.75-16.853 110.413-44.177l10.659-11.417c14.916-16.086 44.16-23.254 64.887-15.693 0 0 18.603 6.775 61.21 31.19 42.615 24.584 57.531 37.384 57.531 37.384 16.854 14.14 25.182 43 18.79 64.11l-4.649 15.498c-9.105 38.366-4.258 80.196 17.05 117.001 21.316 37 55.398 62.379 93.363 73.617l15.112 3.49c21.308 4.83 42.232 26.53 46.106 48.23 0 0 3.482 19.371 3.482 68.566-0.195 49.39-3.685 68.77-3.685 68.77M512.102 180.659c-108.663 0-197.001 88.132-197.001 196.992 0 108.672 88.14 196.813 197.001 196.813 108.672 0 197.001-88.14 197.001-197.001-0.196-108.672-88.329-196.804-197.001-196.804m0 0z"  horiz-adv-x="1024" />

    
    <glyph glyph-name="gailan" unicode="&#59088;" d="M945.230769-128H630.153846a78.769231 78.769231 0 0 0-78.769231 78.769231V265.846154a78.769231 78.769231 0 0 0 78.769231 78.769231h315.076923a78.769231 78.769231 0 0 0 78.769231-78.769231v-315.076923a78.769231 78.769231 0 0 0-78.769231-78.769231z m0 551.384615H630.153846a78.769231 78.769231 0 0 0-78.769231 78.769231V817.230769a78.769231 78.769231 0 0 0 78.769231 78.769231h315.076923a78.769231 78.769231 0 0 0 78.769231-78.769231v-315.076923a78.769231 78.769231 0 0 0-78.769231-78.769231z m-551.384615-551.384615H78.769231a78.769231 78.769231 0 0 0-78.769231 78.769231V265.846154a78.769231 78.769231 0 0 0 78.769231 78.769231h315.076923a78.769231 78.769231 0 0 0 78.769231-78.769231v-315.076923a78.769231 78.769231 0 0 0-78.769231-78.769231z m0 551.384615H78.769231a78.769231 78.769231 0 0 0-78.769231 78.769231V817.230769a78.769231 78.769231 0 0 0 78.769231 78.769231h315.076923a78.769231 78.769231 0 0 0 78.769231-78.769231v-315.076923a78.769231 78.769231 0 0 0-78.769231-78.769231z"  horiz-adv-x="1024" />

    
    <glyph glyph-name="jichusheshipx" unicode="&#58922;" d="M841.6 476.8V696.96a119.04 119.04 0 0 1-118.4 119.04h-71.04a32 32 0 0 1 0-64h71.04a55.04 55.04 0 0 0 54.4-55.04v-192a302.08 302.08 0 0 1-93.44 16A306.56 306.56 0 0 1 415.36 64H150.4a54.4 54.4 0 0 0-54.4 55.04v576a54.4 54.4 0 0 0 54.4 55.04h48.64a32 32 0 0 1 0 64h-48.64A119.04 119.04 0 0 1 32 696.96v-576A119.04 119.04 0 0 1 150.4 0h309.76a305.28 305.28 0 0 1 224-98.56 308.48 308.48 0 0 1 157.44 576z m-157.44-512a245.12 245.12 0 1 0 243.84 245.12 244.48 244.48 0 0 0-243.84-241.92zM302.72 691.2a32 32 0 0 1 32 32V832a32 32 0 0 1-64 0v-108.8a32 32 0 0 1 32-32zM424.32 691.2a32 32 0 0 1 32 32V832a32 32 0 0 1-64 0v-108.8a32 32 0 0 1 32-32zM546.56 691.2A32 32 0 0 1 576 723.2V832a32 32 0 0 1-64 0v-108.8a32 32 0 0 1 34.56-32zM797.44 323.84l-135.04-174.72-86.4 64a32 32 0 0 1-39.04-50.56l108.8-83.2a32 32 0 0 1 44.8 5.76l154.88 199.68a32 32 0 1 1-50.56 39.04z"  horiz-adv-x="1024" />

    
    <glyph glyph-name="wenduji1" unicode="&#58886;" d="M510.328429 292.13370899999995l0 329.975317c0 22.974247-24.601304 41.597397-54.946426 41.597397s-54.946426-18.62315-54.946426-41.597397l0-329.97634c-47.694255-21.10569-80.975243-68.836785-80.975243-124.349099 0-75.068719 60.854996-135.923716 135.923716-135.923716 75.068719 0 135.922692 60.854996 135.922692 135.923716C591.305719 223.29794800000002 558.023708 271.028019 510.328429 292.13370899999995zM638.212028 361.57526800000005L638.212028 720.708672c0 40.614-20.87033 79.707366-57.257052 107.254769-33.952276 25.703405-78.54796 39.8588-125.572974 39.8588-47.026036 0-91.62172-14.155395-125.572974-39.8588-36.388768-27.547403-57.258075-66.64077-57.258075-107.254769l0-359.134427c-53.332672-50.27708-83.591837-119.969349-83.591837-193.789635 0-71.163783 27.713178-138.069589 78.033237-188.390671 50.321082-50.321082 117.225865-78.034261 188.390671-78.034261 71.163783 0 138.069589 27.713178 188.390671 78.034261s78.034261 117.226888 78.034261 188.390671C721.806935 241.60489600000005 691.545724 311.298188 638.212028 361.57526800000005zM455.383026-27.008887999999956c-107.409289 0-194.792475 87.38421-194.792475 194.792475 0 58.20361 25.741267 112.909559 70.624501 150.089343l12.967336 10.741645L344.182388 720.708672c0 40.914852 50.922786 75.482135 111.199615 75.482135 60.275805 0 111.198591-34.56626 111.198591-75.482135l0-392.09205 12.968359-10.741645c44.884256-37.181831 70.627571-91.886757 70.627571-150.090367C650.175501 60.37532199999998 562.792315-27.008887999999956 455.383026-27.008887999999956zM673.33906 682.586422l42.976814 0c9.749038 0 17.652032 7.902994 17.652032 17.651009 0 9.749038-7.902994 17.652032-17.652032 17.652032L673.33906 717.889463c-9.746992 0-17.649985-7.902994-17.649985-17.652032C655.689075 690.488393 663.592069 682.586422 673.33906 682.586422zM716.315874 663.707446L673.33906 663.707446c-9.746992 0-17.649985-7.902994-17.649985-17.652032 0-9.748015 7.902994-17.651009 17.649985-17.651009l42.976814 0c9.749038 0 17.652032 7.902994 17.652032 17.651009C733.967906 655.805476 726.064912 663.707446 716.315874 663.707446zM716.315874 609.527476L673.33906 609.527476c-9.746992 0-17.649985-7.902994-17.649985-17.652032 0-9.748015 7.902994-17.651009 17.649985-17.651009l42.976814 0c9.749038 0 17.652032 7.902994 17.652032 17.651009C733.967906 601.624483 726.064912 609.527476 716.315874 609.527476zM716.315874 555.34546L673.33906 555.34546c-9.746992 0-17.649985-7.902994-17.649985-17.652032 0-9.748015 7.902994-17.651009 17.649985-17.651009l42.976814 0c9.749038 0 17.652032 7.902994 17.652032 17.651009C733.967906 547.443489 726.064912 555.34546 716.315874 555.34546zM716.315874 501.164466L673.33906 501.164466c-9.746992 0-17.649985-7.902994-17.649985-17.652032 0-9.748015 7.902994-17.651009 17.649985-17.651009l42.976814 0c9.749038 0 17.652032 7.902994 17.652032 17.651009C733.967906 493.262496 726.064912 501.164466 716.315874 501.164466zM716.315874 446.984497L673.33906 446.984497c-9.746992 0-17.649985-7.902994-17.649985-17.652032 0-9.748015 7.902994-17.651009 17.649985-17.651009l42.976814 0c9.749038 0 17.652032 7.902994 17.652032 17.651009C733.967906 439.081503 726.064912 446.984497 716.315874 446.984497z"  horiz-adv-x="1024" />

    
    <glyph glyph-name="yueliang" unicode="&#59108;" d="M573.913458 399.189333a358.684444 358.684444 0 0 1 317.013333-179.370666c60.643556 0.995556 97.564444-67.128889 63.004445-117.048889a488.846222 488.846222 0 0 0-157.838223-145.265778c-240.583111-138.894222-548.465778-52.138667-681.016889 192.739556C-9.169209 379.676444 72.466347 675.612444 296.750791 809.073778A488.846222 488.846222 0 0 0 506.528569 876.430222c60.785778 5.12 101.603556-61.127111 70.314667-113.379555a358.684444 358.684444 0 0 1-2.929778-363.861334z m-49.265778-28.444444a415.573333 415.573333 0 0 0 3.384889 421.489778c7.566222 12.657778-2.332444 28.728889-16.725333 27.534222-65.137778-5.489778-128.199111-25.486222-185.457778-59.562667C127.790791 642.275556 55.39968 379.904 165.081458 177.322667c117.304889-216.689778 389.688889-293.432889 602.567111-170.552889a431.957333 431.957333 0 0 1 139.52 128.398222c8.078222 11.662222-0.768 28.017778-15.303111 27.761778a415.573333 415.573333 0 0 0-367.217778 207.815111z"  horiz-adv-x="1024" />

    
    <glyph glyph-name="shebei" unicode="&#58904;" d="M616.319 65.467H519.36v111.54h24.34c-8.464 19.443-14.952 37.863-19.572 56.283H159.99c-17.063 0-32.555 2.16-32.555 18.408v19.454h389.798c-0.366 0-0.814 12.496-0.814 17.94 0 12.103 1.203 18.899 2.976 37.318h-391.96V674.346c0 7.082 6.145 13.543 10.965 18.609 4.801 5.056 14.507 7.984 21.59 7.984h602.994c7.084 0 18.343-8.071 18.343-26.593V511.91c18.42-3.871 36.84-9.903 56.282-17.587V674.346c0 35.637-26.898 82.875-63.368 82.875H159.99c-20.756 0-44.802-10.57-59.99-25.492-15.187-14.942-28.846-36.126-28.846-57.383v-423.673c0-42 24.446-73.666 88.836-73.666h209.969v-111.54h-60.39c-7.083 0-13.162-3.686-18.218-8.761-5.075-5.056-7.594-11.7-7.594-18.801 0-7.084 2.519-14.854 7.594-19.672 5.056-4.82 11.135-9.049 18.218-9.049h306.75c7.083 0 13.144 3.938 18.219 8.757 5.056 4.819 7.594 11.525 7.594 18.608 0 7.1-2.538 14.714-7.594 19.771-5.076 5.075-11.136 9.147-18.22 9.147z m-133.797 0H426.24v111.54h56.282v-111.54zM744.23 213.735c-38.654 0-70.097 31.452-70.097 70.098s31.443 70.097 70.097 70.097 70.098-31.452 70.098-70.097-31.445-70.098-70.098-70.098z m0 102.81c-18.036 0-32.712-14.676-32.712-32.711s14.676-32.712 32.712-32.712 32.712 14.676 32.712 32.712-14.677 32.712-32.712 32.712zM743.737 83.887c-14.631 0-28.413 1.635-38.864 11.913-10.506 10.314-16.393 22.093-16.594 36.825-4.646 1.68-9.21 3.05-13.691 5.168-10.26-9.876-23.685-16.044-37.979-16.044h-0.512c-14.63 0-28.422 5.185-38.873 15.462-10.57 10.37-16.466 24.033-16.602 38.855-0.128 14.732 5.449 28.528 15.717 39.08a162.364 162.364 0 0 0-5.659 13.688c-14.23 0.274-27.6 5.85-37.805 15.872-10.57 10.386-16.466 24.264-16.602 39.087s5.512 28.799 15.91 39.368c10.322 10.515 24.104 16.39 38.817 16.59a162.393 162.393 0 0 0 5.933 14.145c-9.839 10.277-15.306 23.712-15.388 38.042-0.082 14.822 5.605 28.787 16.028 39.32 21.45 21.705 56.507 21.979 78.285 0.676a170.524 170.524 0 0 0 12.887 5.293c0.494 30.176 25.192 54.563 55.485 54.563 30.294 0 54.993-24.388 55.485-54.563 4.692-1.697 9.3-3.614 13.819-5.731 21.503 20.755 55.868 20.755 77.353-0.238 10.606-10.35 16.53-24.223 16.695-39.046 0.164-14.75-5.385-28.66-15.626-39.23a162.84 162.84 0 0 0 5.63-13.58c29.874-0.457 54.218-24.736 54.6-54.8 0.183-14.823-5.421-28.843-15.781-39.45-10.286-10.532-24.042-16.465-38.755-16.72a163.057 163.057 0 0 0-5.905-14.184c9.876-10.241 15.38-23.676 15.516-37.97 0.137-14.823-5.512-28.806-15.89-39.393-21.367-21.76-56.444-22.16-78.286-0.913-4.527-2.117-9.136-0.011-13.837-1.69-0.584-29.883-24.936-50.394-55.001-50.394l-0.51-0.001z m-74.58 95.274c3.396 0 6.763-0.932 9.73-2.72a124.326 124.326 0 0 1 34.848-14.567 18.7 18.7 0 0 0 11.974-9.31 18.683 18.683 0 0 0 1.123-15.133c-0.803-2.263-1.187-4.271-1.169-6.188 0.037-4.874 1.963-9.4 5.413-12.796 3.45-3.377 7.274-5.294 12.842-5.184 9.985 0.09 18.036 8.288 17.954 18.273-0.018 1.698-0.393 3.578-1.16 5.75a18.723 18.723 0 0 0 1.196 15.115 18.757 18.757 0 0 0 12.011 9.255 125.252 125.252 0 0 1 35.05 14.421 18.797 18.797 0 0 0 15.06 1.88 18.675 18.675 0 0 0 11.491-9.912c1.023-2.155 2.173-3.852 3.542-5.203 7.147-6.991 18.63-6.9 25.63 0.237a17.986 17.986 0 0 1 5.184 12.852c-0.046 4.819-1.972 9.347-5.422 12.742-1.223 1.205-2.838 2.282-4.956 3.305a18.665 18.665 0 0 0-9.811 11.536 18.68 18.68 0 0 0 1.963 15.024 124.647 124.647 0 0 1 14.659 35.25 18.736 18.736 0 0 0 9.264 11.993 18.696 18.696 0 0 0 15.115 1.187 19.208 19.208 0 0 1 6.225-1.15c4.846 0.055 9.364 1.989 12.742 5.458a17.96 17.96 0 0 1 5.148 12.869c-0.128 9.967-8.972 17.36-18.318 17.87-1.789-0.255-3.551-0.383-5.732-1.168-4.992-1.77-10.496-1.387-15.15 1.132a18.712 18.712 0 0 0-9.32 11.993 124.78 124.78 0 0 1-14.422 34.812 18.667 18.667 0 0 0-1.916 15.023 18.706 18.706 0 0 0 9.839 11.518c2.19 1.041 3.915 2.227 5.248 3.596a17.972 17.972 0 0 1 5.166 12.87 17.935 17.935 0 0 1-5.44 12.742c-7.147 6.972-18.638 6.846-25.611-0.292-1.186-1.223-2.254-2.83-3.25-4.928a18.727 18.727 0 0 0-11.527-9.858 18.637 18.637 0 0 0-15.05 1.935 124.142 124.142 0 0 1-34.976 14.494 18.707 18.707 0 0 0-12.012 9.292 18.69 18.69 0 0 0-1.159 15.133c0.785 2.209 1.169 4.161 1.169 5.987 0 9.985-8.123 18.108-18.109 18.108s-18.108-8.123-18.108-18.108c0-1.826 0.384-3.779 1.168-5.987a18.69 18.69 0 0 0-1.159-15.133 18.712 18.712 0 0 0-12.002-9.292 124.176 124.176 0 0 1-34.291-14.074 18.644 18.644 0 0 0-15.06-1.826 18.637 18.637 0 0 0-11.455 9.93c-1.013 2.173-2.173 3.87-3.542 5.221-7.11 6.992-18.61 6.956-25.63-0.164a17.944 17.944 0 0 1-5.22-12.815 17.94 17.94 0 0 1 5.376-12.76c1.232-1.223 2.83-2.3 4.902-3.304 4.764-2.282 8.332-6.5 9.82-11.574s0.757-10.533-2.008-15.041a124.84 124.84 0 0 1-14.768-35.177 18.736 18.736 0 0 0-9.32-11.975 18.78 18.78 0 0 0-15.124-1.114c-2.226 0.785-4.107 1.333-6.142 1.15-4.902-0.036-9.43-1.953-12.815-5.402-3.396-3.451-5.24-8.014-5.194-12.852s1.963-9.364 5.413-12.76a18.033 18.033 0 0 1 12.687-5.184c1.542-0.165 3.687 0.366 6.005 1.169 5.002 1.698 10.46 1.296 15.088-1.241a18.686 18.686 0 0 0 9.219-11.994 124.774 124.774 0 0 1 14.385-34.975 18.712 18.712 0 0 0 1.87-15.06 18.718 18.718 0 0 0-9.903-11.483c-2.164-1.022-3.88-2.19-5.24-3.577a17.98 17.98 0 0 1-5.175-12.833 17.955 17.955 0 0 1 5.422-12.743c3.459-3.413 8.589-5.823 12.852-5.202 4.837 0.037 9.373 1.972 12.76 5.421 1.186 1.205 2.254 2.811 3.257 4.911a18.752 18.752 0 0 0 11.546 9.84c1.742 0.51 3.53 0.765 5.31 0.765z"  horiz-adv-x="1024" />

    
    <glyph glyph-name="tianqi" unicode="&#58919;" d="M1199.155323 430.353972h-62.293783a46.720337 46.720337 0 1 0 0 92.662002h62.293783a46.720337 46.720337 0 1 0 0-92.662002z m-120.694205 233.601686a46.720337 46.720337 0 1 0-66.187144 65.408472l44.38432 43.605649a46.720337 46.720337 0 0 0 66.187145-65.408473z m-84.875279-348.066512a247.617787 247.617787 0 0 0-155.734457-443.843204H233.601686a45.941665 45.941665 0 0 0-27.25353 10.122739 278.764679 278.764679 0 0 0-27.25353 528.718484A327.042361 327.042361 0 0 0 622.93783 586.088429a233.601686 233.601686 0 0 0 436.056481-109.01412 233.601686 233.601686 0 0 0-65.408472-161.185163zM482.776818 554.162866a264.748578 264.748578 0 0 1-254.625838-193.110728 216.470896 216.470896 0 0 1 21.024152-425.155069H859.654206a185.324004 185.324004 0 1 1-112.907482 347.287841v10.901412A263.969906 263.969906 0 0 1 482.776818 554.162866z m342.615807 92.662002a170.529231 170.529231 0 0 1-151.841096-91.88333 325.485016 325.485016 0 0 0 127.702255-193.8894 241.388409 241.388409 0 0 0 136.26765-15.573445 168.971886 168.971886 0 0 1 59.179094 127.702255 171.307903 171.307903 0 0 1-171.307903 170.529231z m0 92.662002a46.720337 46.720337 0 0 0-46.720337 46.720337V849.279663a46.720337 46.720337 0 0 0 93.440674 0v-62.293783a46.720337 46.720337 0 0 0-46.720337-46.720338zM572.324131 661.619641l-44.38432 45.162993a46.720337 46.720337 0 0 0 0 65.408472 46.720337 46.720337 0 0 0 66.187145 0l44.38432-42.826976a46.720337 46.720337 0 1 0-66.187145-65.408472z m0 0"  horiz-adv-x="1252" />

    
    <glyph glyph-name="wulianwang" unicode="&#58885;" d="M921.712545 334.791576c-29.153736 0-54.14251-16.65885-66.636398-40.607133l-217.610532 57.265982c1.04149 6.246944 1.04149 11.453396 1.04149 17.70034 0 24.988774-7.288434 47.895567-18.74183 68.719379l166.591494 133.273794c14.576868-12.494887 33.318699-19.782321 53.10102-19.782321 45.812586 0 83.296247 37.483661 83.296246 83.296247s-37.483661 83.296247-83.296246 83.296246-83.296247-37.483661-83.296247-83.296246c0-13.535378 3.123472-26.030264 8.329925-37.483661L597.899973 463.900408c-20.823812 20.823812-48.936058 34.359189-79.131285 37.483661l-7.288434 214.48706c42.689114 7.288434 74.966322 44.771095 74.966322 89.543191 0 49.977548-40.607133 90.584681-90.58468 90.58468s-91.625172-40.607133-91.625172-91.625171c0-43.730604 31.235718-81.213266 72.884341-89.54319l8.329924-214.487061c-29.153736-4.164962-55.184001-18.74183-74.966322-38.524152L185.585701 628.41092c1.04149 3.123472 1.04149 7.288434 1.04149 10.411906 0 23.947284-19.782321 43.730604-43.730604 43.730604s-42.689114-20.823812-42.689114-44.771095 19.782321-43.730604 43.730604-43.730604c8.329925 0 15.618359 2.081981 21.865302 6.246943l224.898967-166.591494c-10.411906-18.74183-16.65885-41.647624-16.65885-64.554416 0-4.164962 0-9.370415 1.041491-13.535378L101.249963 292.104461c-9.370415 14.576868-24.988774 23.947284-42.689114 23.947283-29.153736-1.04149-52.059529-23.947284-52.05953-52.059529s22.906793-51.019039 51.019039-51.019039c26.030264 0 47.895567 19.782321 51.019038 45.812586l272.794533 63.512926c9.370415-24.988774 27.070755-46.854076 48.936058-62.472435L306.367607 21.391909c-3.123472 1.04149-7.288434 1.04149-10.411906 1.04149-32.277208 0-59.347964-26.030264-59.347963-59.347963s26.030264-59.347964 59.347963-59.347964c32.277208 0 59.347964 26.030264 59.347964 59.347964 0 16.65885-7.288434 32.277208-18.741831 42.689114l123.90238 238.434344c14.576868-5.206453 29.153736-8.329925 45.812586-8.329925 12.494887 0 23.947284 2.081981 35.40068 5.206453l96.831624-226.981947c-15.618359-12.494887-26.030264-31.235718-26.030264-53.10102 0-37.483661 30.195227-67.677888 67.677888-67.677888s67.677888 30.195227 67.677888 67.677888-30.195227 67.677888-67.677888 67.677888c-3.123472 0-6.246944 0-9.370415-1.041491l-96.831625 226.981948c24.988774 14.576868 44.771095 37.483661 55.184001 63.512926l217.610532-57.265983v-2.081981c0-41.647624 33.318699-74.966322 74.966322-74.966322s74.966322 33.318699 74.966323 74.966322-33.318699 76.007813-74.966323 76.007813z"  horiz-adv-x="1024" />

    
    <glyph glyph-name="xinxi" unicode="&#58966;" d="M339.968-32.256c-6.144 0-10.752 0-16.384 2.56-17.92 9.728-18.432 25.6-8.704 43.008l65.536 110.08c6.656 11.776 9.216 26.624 22.528 26.624h449.536c35.328 0 75.264 41.472 75.264 75.776v440.32c0 34.816-38.912 70.144-74.24 70.144H169.984c-35.328 0-74.24-39.424-74.24-74.24v-440.32c0-34.816 37.888-72.192 73.216-72.192h74.24c20.48 0 37.888-10.24 37.888-30.208 0-19.968-16.384-32.256-36.864-32.256h-74.24c-76.288 0-138.24 60.928-138.24 135.68v440.32c0 74.752 61.952 135.68 138.24 135.68H854.016c76.288 0 138.24-60.928 138.24-135.68v-440.32c0-74.752-61.952-135.68-138.24-135.68h-427.52l-55.808-101.376c-6.656-11.776-18.944-18.944-32.768-18.944h2.048zM523.776 545.792h-281.088c-19.456 0-35.328 14.336-35.328 32.256s15.872 32.256 35.328 32.256h281.088c19.456 0 35.328-14.336 35.328-32.256 0.512-17.92-15.36-32.256-35.328-32.256z m159.232-161.792h-438.784c-20.48 0-36.864 14.336-36.864 32.256s16.384 32.256 36.864 32.256H683.008c20.48 0 36.864-14.336 36.864-32.256-0.512-17.92-16.896-32.256-36.864-32.256z"  horiz-adv-x="1024" />

    
    <glyph glyph-name="puping" unicode="&#59223;" d="M403.2512 3.268267h217.514667V112.0256h-217.514667v-108.757333z m404.1472 761.463466H216.610133c-29.8496 0-54.382933-24.5248-54.382933-54.3744v-489.489066c0-29.934933 24.533333-54.382933 54.382933-54.382934h590.788267c29.8496 0 54.3744 24.448 54.3744 54.382934V710.357333c0 29.841067-24.5248 54.3744-54.3744 54.3744zM566.382933 220.868267H457.6256v54.382933h108.757333v-54.382933z m241.015467 108.7488H216.610133V710.357333h590.788267v-380.740266z"  horiz-adv-x="1024" />

    
    <glyph glyph-name="huanjingjiance3" unicode="&#58915;" d="M512 831c246.871 0 447-200.129 447-447a445.017 445.017 0 0 0-88.8-267.446C788.512 7.616 658.35-63 512-63h-0.13c-145.693 0.041-275.319 70.073-357.041 178.213A445 445 0 0 0 65 384C65 630.871 265.129 831 512 831z m0-826.9c209.711 0 380.326 170.578 380.326 380.245S721.711 764.591 512 764.591 131.674 594.014 131.674 384.347 302.287 4.1 512 4.1zM261.392 540.926a33.567 33.567 0 0 0 30.085-48.367 243.066 243.066 0 0 1-25.086-108.212c0-135.4 110.178-245.555 245.607-245.555S757.6 248.949 757.6 384.347a243.019 243.019 0 0 1-25.085 108.212 33.558 33.558 0 0 0 60.226 29.619 309.581 309.581 0 0 0 31.977-137.831c0-172.4-140.287-312.657-312.722-312.657S199.277 211.946 199.277 384.347a309.6 309.6 0 0 0 31.977 137.831 33.562 33.562 0 0 0 30.138 18.748zM512 283.694a100.654 100.654 0 0 0-33.558 195.557V663.938a33.558 33.558 0 0 0 67.116 0v-184.687A100.654 100.654 0 0 0 512 283.694z m0 134.2a33.551 33.551 0 1 1 33.558-33.551A33.593 33.593 0 0 1 512 417.9z"  horiz-adv-x="1024" />

    
    <glyph glyph-name="gailan1" unicode="&#58906;" d="M64 800v-320h320v320H64z m0 64h320a64 64 0 0 0 64-64v-320a64 64 0 0 0-64-64H64a64 64 0 0 0-64 64v320a64 64 0 0 0 64 64zM608 800v-320h320v320h-320z m0 64h320a64 64 0 0 0 64-64v-320a64 64 0 0 0-64-64h-320a64 64 0 0 0-64 64v320a64 64 0 0 0 64 64zM64 256v-320h320v320H64z m0 64h320a64 64 0 0 0 64-64v-320a64 64 0 0 0-64-64H64a64 64 0 0 0-64 64v320a64 64 0 0 0 64 64zM608 256v-320h320v320h-320z m0 64h320a64 64 0 0 0 64-64v-320a64 64 0 0 0-64-64h-320a64 64 0 0 0-64 64v320a64 64 0 0 0 64 64z"  horiz-adv-x="1024" />

    
    <glyph glyph-name="jilu" unicode="&#58967;" d="M512 861.866667C249.173333 861.866667 34.133333 646.826667 34.133333 384s215.04-477.866667 477.866667-477.866667 477.866667 215.04 477.866667 477.866667S774.826667 861.866667 512 861.866667z m0-887.466667C286.72-25.6 102.4 158.72 102.4 384S286.72 793.6 512 793.6s409.6-184.32 409.6-409.6-184.32-409.6-409.6-409.6z m170.666667 375.466667h-170.666667V588.8c0 20.48-13.653333 34.133333-34.133333 34.133333s-34.133333-13.653333-34.133334-34.133333v-273.066667c0-20.48 13.653333-34.133333 34.133334-34.133333h204.8c20.48 0 34.133333 13.653333 34.133333 34.133333s-13.653333 34.133333-34.133333 34.133334z"  horiz-adv-x="1024" />

    
    <glyph glyph-name="ludeng1" unicode="&#58899;" d="M855.6 546.4l55.7 61.8c13.3-14.7 11.8-40.8-3.1-57.8-16.1-17.2-39.2-19-52.6-4z m-687.2-0.2c-13.4-14.7-37.1-12.9-52 4.3-15.5 17-17 42.8-3.6 57.5l55.6-61.8z m375.2-549h39.7c6.2 0 11.2-5 11.2-11.2v-38.8c0-6.2-5-11.2-11.2-11.2H447c-6.2 0-11.2 5-11.2 11.2V-14c0 6.2 5 11.2 11.2 11.2h36.9V602.7c2.3 95.2-12.9 160.2-43.2 187.7-19.3 17.3-41.4 17-55.1 14.1 3.2-10.6 1.8-22.4-4.1-30.2l-5.9 7.4c-0.8-4-30.4-156-148.3-285.5l-158.8 178s77.2 94.3 280.7 136.2l2.6-2.3 23-25.4-23.7 29.6-7.4 9.2c6.4 8.4 16.5 9.5 25.3 4.9 12.4 4.6 50.1 15 83.2-14.7 21.6-19.2 36.3-50.9 44.5-94.6 6-31.9 9.2-70.2 7.4-114.7v-111.3h14.2V599.6c-0.9 42.3 1.4 78.8 6.9 109.6 8.3 46.3 23 79.9 45 99.8 5.5 4 10.1 7.2 14.2 10.1 17.9 10.1 34.5 11.2 48.2 9.5 7.4 0 15.6-1.2 23.9-3.5 7.8 2.9 16.5 1.1 23-6l-4.1-4.9-19-24 18.9 20.3c4.1-0.9 7.2-1.7 11.3-2.6 194.7-43.1 268.9-133.7 268.9-133.7L796.8 496.3C683.3 621.2 652 766.9 649.2 781l-7.3-9.2c-6.4 7.7-7.3 19.2-4.6 30.2-13.8 2.6-35.8 2.9-55.1-14.4-9.2-8.4-17-20.4-23-35.6-0.9-1.7-2.3-4-2.8-6.1-12.9-34.5-18.4-83.7-17.5-145.7v-106.4h12.4v-34.2l13.8 1.1c2.3 0 3.2-4 3.2-6.5 0-2.9-1.4-7.5-3.2-7.5l-13.8 2v-35.4h-7.8v-416.1z"  horiz-adv-x="1024" />

    
    <glyph glyph-name="ludeng" unicode="&#58909;" d="M855.6 546.4l55.7 61.8c13.3-14.7 11.8-40.8-3.1-57.8-16.1-17.2-39.2-19-52.6-4z m-687.2-0.2c-13.4-14.7-37.1-12.9-52 4.3-15.5 17-17 42.8-3.6 57.5l55.6-61.8z m375.2-549h39.7c6.2 0 11.2-5 11.2-11.2v-38.8c0-6.2-5-11.2-11.2-11.2H447c-6.2 0-11.2 5-11.2 11.2V-14c0 6.2 5 11.2 11.2 11.2h36.9V602.7c2.3 95.2-12.9 160.2-43.2 187.7-19.3 17.3-41.4 17-55.1 14.1 3.2-10.6 1.8-22.4-4.1-30.2l-5.9 7.4c-0.8-4-30.4-156-148.3-285.5l-158.8 178s77.2 94.3 280.7 136.2l2.6-2.3 23-25.4-23.7 29.6-7.4 9.2c6.4 8.4 16.5 9.5 25.3 4.9 12.4 4.6 50.1 15 83.2-14.7 21.6-19.2 36.3-50.9 44.5-94.6 6-31.9 9.2-70.2 7.4-114.7v-111.3h14.2V599.6c-0.9 42.3 1.4 78.8 6.9 109.6 8.3 46.3 23 79.9 45 99.8 5.5 4 10.1 7.2 14.2 10.1 17.9 10.1 34.5 11.2 48.2 9.5 7.4 0 15.6-1.2 23.9-3.5 7.8 2.9 16.5 1.1 23-6l-4.1-4.9-19-24 18.9 20.3c4.1-0.9 7.2-1.7 11.3-2.6 194.7-43.1 268.9-133.7 268.9-133.7L796.8 496.3C683.3 621.2 652 766.9 649.2 781l-7.3-9.2c-6.4 7.7-7.3 19.2-4.6 30.2-13.8 2.6-35.8 2.9-55.1-14.4-9.2-8.4-17-20.4-23-35.6-0.9-1.7-2.3-4-2.8-6.1-12.9-34.5-18.4-83.7-17.5-145.7v-106.4h12.4v-34.2l13.8 1.1c2.3 0 3.2-4 3.2-6.5 0-2.9-1.4-7.5-3.2-7.5l-13.8 2v-35.4h-7.8v-416.1z"  horiz-adv-x="1024" />

    
    <glyph glyph-name="jichusheshi" unicode="&#59014;" d="M597.1 295.9l25.3 11.5-4.8 19-27.3-4c-2.5 7.4-5.4 14.6-8.8 21.8L603 362l-9.4 17.1-25.3-11.1c-4.2 6.6-8.9 12.8-13.9 18.7l16.3 23.2-13.3 13.9-21.7-17.6c-5.7 5.3-11.8 10.1-18 14.5l9.9 26.6-16.4 9.8-16.5-22.8c-6.8 3.5-13.9 6.6-21.1 9.1l3.2 28.4-18.3 5.2-10.3-26.5c-7.5 1.4-15 2.5-22.6 3.1l-4.2 28.3h-19l-3.4-28.3c-7.5-0.6-15-1.6-22.6-3.1l-11.1 26.3-18.3-5.2 3.8-28.3c-7.2-2.5-14.2-5.6-21-9.1l-17.3 22.5-16.4-9.8 10.6-26.2c-6.2-4.5-12.4-9.2-18-14.5l-22.2 16.9-13.4-13.8 16.9-22.4c-4.9-6.1-9.6-12.3-13.8-18.9l-25.7 10.4-9.6-16.9 22.1-17.2c-3.4-7.1-6.3-14.5-8.8-21.9l-27.5 3.2-4.9-19 25.5-10.7c-1.3-7.5-2.4-15.5-2.9-23.3l-27.4-4.3-0.2-19.7 27.4-3.5c0.5-7.9 1.5-15.7 3.1-23.4L202 210.2l4.9-19 27.3 4c2.5-7.5 5.4-14.8 8.8-21.9l-21.6-17.8 9.4-16.9 25.4 11.1c4.2-6.5 8.8-12.7 13.8-18.7l-16.4-23.1 13.3-14 21.8 17.5c5.8-5 11.8-9.8 18-14.2l-10-26.6 16.4-10 16.6 22.8c6.8-3.4 13.8-6.4 21.1-9l-3.1-28.4 18.3-5.3 10.3 26.5c7.5-1.5 15-2.5 22.6-3.1l4.2-28.3H422l3.4 28.3c7.6 0.5 15.2 1.5 22.6 3.1l11-26.2 18.3 5-3.8 28.3c7.2 2.6 14.2 5.6 21 9l17.2-22.5 16.4 9.8-10.7 26.3c6.3 4.4 12.3 9.1 18.1 14.2l22.1-16.8 13.5 14-16.9 22.5c5 5.9 9.6 12.1 13.9 18.6l25.7-10.4 9.4 17.2-21.9 17.1c3.3 7.1 6.3 14.4 8.8 21.8l27.5-3.2 5 19-25.5 10.7c1.4 7.8 2.3 15.6 2.9 23.4l27.4 4.2V269l-27.3 3.5c-0.6 7.9-1.6 15.7-3 23.4z m-57.8-72.7c-8.7-33.6-30-63.7-61.3-82.7-31.6-18.8-67.5-22.5-100-13.4-32.6 9.2-61.6 31.1-79.9 63.8-18 32.6-21.5 69.9-12.8 103.5 8.7 33.7 29.9 63.9 61.3 82.6 30 18.1 66.2 23 100 13.5 34.1-9.7 62.9-32.7 79.8-63.8 17.4-31.6 22.1-68.6 12.9-103.5zM825.8 555.2l-0.5 15.4-21.6 2c-0.7 6.1-1.7 12.2-3.1 18.3l19.6 9.8-4.4 14.7-21.3-3.9c-2.1 5.8-4.6 11.4-7.5 16.8l16.5 14.7-8 13.1-19.7-9.5c-3.5 4.9-7.4 9.7-11.4 14.2l12.2 18.7-10.9 10.4-16.6-14.4c-4.6 3.9-9.5 7.5-14.6 10.8l7 21.2-13.1 7.2-12.5-18.3c-5.5 2.4-11.1 4.6-16.8 6.4l1.6 22.5-14.6 3.5-7.5-21.1c-5.9 1-11.8 1.6-17.8 1.8l-4 22.1-15.1-0.5-1.8-22.5c-5.9-0.6-11.8-1.7-17.6-3.1l-9.6 20.2-14.2-4.4 3.8-22.1c-5.5-2.3-11-4.9-16.2-7.7L572 708.8l-12.6-8.2 9.1-20.4c-4.8-3.7-9.4-7.6-13.8-11.8l-17.9 12.7-10.2-11.3 14-17.1c-3.7-4.9-7.2-10-10.4-15.2l-20.5 7.5-6.9-13.8 17.7-12.8c-2.4-5.7-4.5-11.5-6.2-17.5l-21.7 1.6-3.3-15 20.4-7.7c-0.8-6.1-1.5-12.3-1.7-18.5l-21.3-4.2 0.6-15.4 21.6-1.9c0.5-6.1 1.6-12.2 2.9-18.3l-19.6-9.8 4.4-14.7 21.3 4c2.1-5.8 4.7-11.5 7.6-16.9L509 469.3l8-13.2 19.6 9.6c3.5-5.2 7.4-9.8 11.4-14.4l-12.2-18.5 10.9-10.6 16.5 14.4c4.7-3.8 9.6-7.4 14.7-10.6l-7.1-21.3 13.2-7.3 12.5 18.3c5.4-2.5 11.1-4.7 16.7-6.4l-1.5-22.5 14.6-3.4 7.4 21.1c5.8-1 11.8-1.6 17.8-1.8l4.1-22 14.9 0.4 1.8 22.5c5.9 0.7 11.8 1.7 17.7 3.2l9.3-20.4 14.3 4.7-3.7 22c5.6 2.2 11.1 4.9 16.3 7.8l14.2-17.1 12.7 8.2-9.2 20.3c4.9 3.8 9.5 7.7 13.8 12l18.1-12.8 10.1 11.5-13.9 17.1c3.8 4.8 7.2 9.9 10.3 15.1l20.5-7.4 6.9 13.7-17.7 12.8c2.4 5.6 4.5 11.5 6.1 17.3l21.8-1.7 3.2 15.2-20.4 7.7c1 6.1 1.6 12.3 1.8 18.4l21.3 4z m-143.9-45.5c-12.3-7.4-26.4-9-39.2-5.3-12.8 3.6-24.2 12.2-31.3 25-7.1 12.8-8.6 27.5-5.2 40.7 3.4 13.2 11.9 25.1 24.1 32.6 11.8 7.1 26 9.1 39.2 5.3 12.8-3.5 24.3-12.3 31.3-25 14.2-25.6 5.9-57.8-18.9-73.3zM669.5 608c-13.3 3.7-27.4 1.8-39.2-5.3-12.3-7.5-20.7-19.3-24.1-32.6-3.4-13.3-1.9-27.9 5.2-40.7 7.1-12.8 18.5-21.4 31.3-25 12.8-3.6 26.9-2 39.2 5.3 24.8 15.5 33.1 47.7 19 73.3-7.1 12.7-18.6 21.5-31.4 25z m4.8-84.4c-8.3-5-18.3-6.3-27.7-3.7-9.3 2.6-17.2 8.9-21.7 17.5-9.9 17.9-4.1 40.5 13.2 51.3 8.3 4.9 18.3 6.2 27.6 3.6s17.2-8.9 21.9-17.5c9.8-17.8 4-40.3-13.3-51.2zM665.7 592.4c-9.3 2.6-19.2 1.3-27.6-3.6-17.4-10.9-23.2-33.4-13.2-51.3 4.5-8.6 12.4-14.9 21.7-17.5 9.3-2.6 19.3-1.3 27.7 3.7 17.3 10.9 23.1 33.4 13.3 51.3-4.7 8.4-12.6 14.7-21.9 17.4zM446.6 390.5c-33.8 9.5-69.9 4.6-100-13.5-31.4-18.7-52.7-48.9-61.3-82.6-8.7-33.7-5.2-70.9 12.8-103.5 18.3-32.7 47.3-54.6 79.9-63.8 32.5-9.1 68.4-5.4 100 13.4 31.3 19 52.7 49.1 61.3 82.7 9.2 34.9 4.5 72-12.9 103.6-16.9 31.1-45.7 54.1-79.8 63.7z m15.6-145.7c-3.4-13.6-12-25.3-24-32.6-11.9-7-26.2-8.9-39.5-5.2s-24.5 12.7-31.1 24.9c-6.9 12.4-8.7 27-5.2 40.7 3.4 13.6 12.1 25.3 24.1 32.6 11.9 7.2 26.2 9.1 39.6 5.4 13.4-3.7 24.6-12.8 31.1-25 6.8-12.4 8.6-27 5-40.8zM426 310.7c-13.4 3.7-27.7 1.8-39.6-5.4-12-7.3-20.6-19-24.1-32.6-3.5-13.7-1.7-28.3 5.2-40.7 6.5-12.2 17.8-21.2 31.1-24.9 13.3-3.7 27.6-1.9 39.5 5.2 12 7.2 20.7 18.9 24 32.6 3.6 13.7 1.8 28.3-5 40.8-6.4 12.2-17.7 21.3-31.1 25z m4.4-84.4c-8.3-5.1-18.3-6.4-27.7-3.8-9.4 2.6-17.2 9-21.7 17.6-10 17.9-4.1 40.6 13.3 51.3 8.3 4.9 18.2 6.2 27.5 3.6 9.4-2.7 17.2-8.9 21.9-17.5 10-17.8 4.1-40.4-13.3-51.2zM421.8 295c-9.3 2.6-19.2 1.3-27.5-3.6-17.4-10.7-23.3-33.4-13.3-51.3 4.5-8.6 12.4-15 21.7-17.6 9.4-2.6 19.4-1.2 27.7 3.8 17.4 10.8 23.3 33.3 13.3 51.3-4.7 8.5-12.6 14.8-21.9 17.4zM512 896C229.2 896 0 666.8 0 384s229.2-512 512-512 512 229.2 512 512S794.8 896 512 896z m0-982.7C252-86.7 41.3 124 41.3 384S252 854.7 512 854.7 982.7 644 982.7 384 772-86.7 512-86.7z"  horiz-adv-x="1024" />

    
    <glyph glyph-name="wenduji" unicode="&#59132;" d="M556.3-116.7c-111.6 0-202.3 90.8-202.3 202.3 0 65.8 31.6 126.7 85.1 164.7V745.4C439.1 808.6 490.5 860 553.7 860h5.2c63.2 0 114.6-51.4 114.6-114.6v-495.1c53.5-38 85.1-98.9 85.1-164.7 0-111.5-90.8-202.3-202.3-202.3z m-2.6 943.2c-44.7 0-81-36.4-81-81v-513.1l-7.7-5c-48.5-31.3-77.4-84.3-77.4-141.8 0-93.1 75.7-168.8 168.8-168.8s168.8 75.7 168.8 168.8c0 57.5-28.9 110.4-77.4 141.8l-7.7 5V745.5c0 44.7-36.4 81-81 81h-5.4z m-95.3-746.8a97.9 97.9 0 1 1 195.8 0 97.9 97.9 0 1 1-195.8 0z m134.2 80.4c0-20.1-16.3-36.3-36.3-36.3-20.1 0-36.3 16.3-36.3 36.3v392c0 20.1 16.3 36.3 36.3 36.3 20.1 0 36.3-16.3 36.3-36.3v-392zM370.8 722.7h-94.4c-6.2 0-11.2 5-11.2 11.2 0 6.2 5 11.2 11.2 11.2h94.4c6.2 0 11.2-5 11.2-11.2-0.1-6.2-5.1-11.2-11.2-11.2z m0-75.5h-63.6c-6.2 0-11.2 5-11.2 11.2 0 6.2 5 11.2 11.2 11.2h63.6c6.2 0 11.2-5 11.2-11.2-0.1-6.2-5.1-11.2-11.2-11.2z m0-75.4h-94.4c-6.2 0-11.2 5-11.2 11.2s5 11.2 11.2 11.2h94.4c6.2 0 11.2-5 11.2-11.2s-5.1-11.2-11.2-11.2z m0-75.5h-63.6c-6.2 0-11.2 5-11.2 11.2 0 6.2 5 11.2 11.2 11.2h63.6c6.2 0 11.2-5 11.2-11.2-0.1-6.2-5.1-11.2-11.2-11.2z m0-75.5h-94.4c-6.2 0-11.2 5-11.2 11.2s5 11.2 11.2 11.2h94.4c6.2 0 11.2-5 11.2-11.2s-5.1-11.2-11.2-11.2z"  horiz-adv-x="1024" />

    
    <glyph glyph-name="shezhi2" unicode="&#58994;" d="M965.824 490.048a180.48 180.48 0 0 0-117.12 85.376 174.464 174.464 0 0 0-16 142.08 22.208 22.208 0 0 1-7.04 23.552 480.576 480.576 0 0 1-153.6 89.216 23.104 23.104 0 0 1-24.32-5.76 182.208 182.208 0 0 0-135.68-57.92 182.208 182.208 0 0 0-133.12 56.64 23.104 23.104 0 0 1-26.88 7.04c-56.32-20.096-108.48-50.56-153.6-89.856a22.208 22.208 0 0 1-7.04-23.552 174.464 174.464 0 0 0-16-141.44A180.48 180.48 0 0 0 58.24 490.048a22.4 22.4 0 0 1-17.28-17.792 455.04 455.04 0 0 1 0-176.512 22.4 22.4 0 0 1 17.28-17.792 180.48 180.48 0 0 0 117.12-84.736c25.408-42.944 31.232-94.592 16-142.08a22.208 22.208 0 0 1 7.04-23.552 480.576 480.576 0 0 1 153.6-89.216h7.68a23.04 23.04 0 0 1 16.64 7.04 184.128 184.128 0 0 0 266.944 0c6.592-8.96 18.752-11.968 28.8-7.04a479.36 479.36 0 0 1 156.16 88.576 22.208 22.208 0 0 1 7.04 23.552 174.464 174.464 0 0 0 13.44 142.72 180.48 180.48 0 0 0 117.12 84.736 22.4 22.4 0 0 1 17.28 17.792 452.608 452.608 0 0 1 0 176.512 23.04 23.04 0 0 1-17.28 17.792z m-42.88-169.408a218.752 218.752 0 0 1-128-98.112 211.904 211.904 0 0 1-21.76-156.736 415.936 415.936 0 0 0-112-63.68 217.472 217.472 0 0 1-149.12 63.68 221.312 221.312 0 0 1-149.12-63.68 414.592 414.592 0 0 0-112 63.68 209.28 209.28 0 0 1-23.68 156.096A218.752 218.752 0 0 1 101.12 320.64a386.176 386.176 0 0 0 0 127.36 218.752 218.752 0 0 1 128 98.112c27.2 47.552 34.944 103.68 21.76 156.8a415.296 415.296 0 0 0 112 63.68A221.44 221.44 0 0 1 512 708.608a218.24 218.24 0 0 1 149.12 57.984 413.952 413.952 0 0 0 112-63.744 211.904 211.904 0 0 1 23.04-156.096 218.752 218.752 0 0 1 128-98.112c7.04-42.176 7.04-85.184 0-127.36l-1.28-0.64h0.064zM512 196.992a187.328 187.328 0 1 0 0 374.656 187.328 187.328 0 0 0 0-374.656z m0 64a123.328 123.328 0 1 1 0 246.656 123.328 123.328 0 0 1 0-246.656z"  horiz-adv-x="1024" />

    
    <glyph glyph-name="huanjing1" unicode="&#58907;" d="M39.837999-127.744C17.856-127.744 0-109.888 0-87.906001 0 48.587997 39.910999 108.618995 118.674998 234.669993c-20.157 28.919999-35.419999 60.140999-45.461999 92.931998-29.248999 95.377998-22.238 191.522996-7.376 244.834995 22.384 80.297998 60.396999 142.446997 116.118997 189.989997 51.376999 43.817999 118.345998 75.184999 204.704996 95.852998C533.12399 893.29798 728.189986 895.99998 987.812981 895.99998h68.867998a39.676999 39.676999 0 0 0 30.052-13.73l0.183-0.182 0.365-0.439c7.559-9.019 10.772-20.813 8.764-32.424999-34.762999-200.834996-89.024998-365.919993-161.214997-490.692991-62.185999-107.355998-138.393997-186.519996-226.504996-235.268995-69.597999-38.486999-145.842997-57.985999-226.577995-57.985999-15.117 0-30.161999 0.657-44.695 1.935-67.954999 5.843-122.946998 23.735-157.161996 37.683999-15.701 6.463-31.256999 14.24-46.265 23.187-18.842 11.21-25.086 35.711999-13.875999 54.589999 7.157 12.014 20.266 19.463 34.251999 19.463a39.917999 39.917999 0 0 0 20.339-5.587c11.648-6.937 23.662-12.926 35.674999-17.856 30.964999-12.67 94.319998-33.958999 170.964997-33.958999h0.037c67.333999 0 130.833997 16.25 188.674996 48.272999 162.382997 89.864998 276.493995 299.499994 339.299993 623.243988h-17.380999c-523.37499 0-778.105985-11.283-848.981984-265.319995-9.64-34.579999-19.025-115.679998 6.828-200.067996 4.674-15.336 10.991-30.343999 18.77-44.839999 25.997999 33.994999 54.297999 66.383999 84.385998 96.436998 67.005999 67.077999 143.249997 123.932998 220.406996 164.354996 76.645999 40.203999 148.981997 61.454999 209.122996 61.454999 21.946 0 39.838999-17.856 39.838999-39.837999 0-21.946-17.856-39.837999-39.838999-39.837999-46.629999 0-107.792998-18.586-172.242997-52.289999-69.926999-36.624999-139.451997-88.512998-201.052996-150.114997C223.254996 260.632992 79.639998 154.007994 79.639998-87.870001c0.036-22.018-17.856-39.873999-39.801999-39.873999z"  horiz-adv-x="1096" />

    
    <glyph glyph-name="night" unicode="&#59125;" d="M785.246316 313.93684199999996a204.8 204.8 0 0 1 101.861052 163.84 26.947368 26.947368 0 0 1-37.456842 26.947369 97.010526 97.010526 0 0 0-38.265263-7.814737 94.046316 94.046316 0 0 0-95.393684 92.429473 89.734737 89.734737 0 0 0 23.983158 60.362106 26.947368 26.947368 0 0 1-15.090526 44.463158 191.595789 191.595789 0 0 1-35.031579 3.233684 198.871579 198.871579 0 0 1-190.787369-149.557895 197.524211 197.524211 0 0 1-239.292631-150.635789 165.995789 165.995789 0 0 1 39.073684-326.332632h373.490526a149.018947 149.018947 0 0 1 144.976842 149.288421v3.233684c0 1.077895 0 0 0 0v4.311579 12.665263a143.36 143.36 0 0 1-32.067368 73.566316zM673.684211 642.425263a140.665263 140.665263 0 0 1-10.509474-53.894737 147.941053 147.941053 0 0 1 149.288421-146.32421h14.282105a147.402105 147.402105 0 0 0-85.962105-91.621053 143.090526 143.090526 0 0 1-21.288421 9.162105l-10.778948 3.233685-9.701052 2.425263a134.736842 134.736842 0 0 1-26.947369 2.694737 143.898947 143.898947 0 0 1-19.402105-1.347369 198.602105 198.602105 0 0 1-101.861052 160.336842A146.054737 146.054737 0 0 0 673.684211 642.425263z m0-517.658947H298.576842a112.101053 112.101053 0 0 0-12.395789 222.585263l21.288421 2.425263 2.425263 21.288421a144.707368 144.707368 0 0 0 288.336842-16.437895v-6.467368a144.707368 144.707368 0 0 1-43.385263-39.612632A26.947368 26.947368 0 0 1 598.231579 276.21052599999996a91.082105 91.082105 0 0 0 31.797895 26.947369h2.425263c2.425263 0 5.12 1.886316 7.814737 2.96421a93.776842 93.776842 0 0 0 12.395789 4.311579 90.543158 90.543158 0 0 0 19.941053 2.425263 95.393684 95.393684 0 0 0-0.269474-188.092631z"  horiz-adv-x="1024" />

    
    <glyph glyph-name="PM1" unicode="&#58929;" d="M512 809.6c235.2 0 425.6-190.4 425.6-425.6S747.2-41.6 512-41.6 86.4 148.8 86.4 384 276.8 809.6 512 809.6M512 880C238.4 880 16 657.6 16 384s222.4-496 496-496 496 222.4 496 496S785.6 880 512 880zM654.4 100.8c-52.8 0-105.6 14.4-153.6 40-75.2 41.6-163.2 41.6-238.4 0-17.6-9.6-38.4-3.2-48 14.4-9.6 17.6-3.2 38.4 14.4 48 94.4 52.8 212.8 52.8 307.2 0 75.2-41.6 163.2-41.6 238.4 0 17.6 9.6 38.4 3.2 48-14.4 9.6-17.6 3.2-38.4-14.4-48-48-27.2-100.8-40-153.6-40zM246.4 348.8m-35.2 0a35.2 35.2 0 1 1 70.4 0 35.2 35.2 0 1 1-70.4 0ZM617.6 614.4m-35.2 0a35.2 35.2 0 1 1 70.4 0 35.2 35.2 0 1 1-70.4 0ZM654.4 313.6m-35.2 0a35.2 35.2 0 1 1 70.4 0 35.2 35.2 0 1 1-70.4 0ZM459.2 366.4m-52.8 0a52.8 52.8 0 1 1 105.6 0 52.8 52.8 0 1 1-105.6 0ZM760 454.4m-52.8 0a52.8 52.8 0 1 1 105.6 0 52.8 52.8 0 1 1-105.6 0ZM369.6 561.6m-52.8 0a52.8 52.8 0 1 1 105.6 0 52.8 52.8 0 1 1-105.6 0Z"  horiz-adv-x="1024" />

    
    <glyph glyph-name="yujing" unicode="&#58965;" d="M512 896C229.794909 896 0 666.344727 0 384s229.748364-512 512-512c282.344727 0 512 229.655273 512 512S794.344727 896 512 896z m0-979.456C254.138182-83.456 44.544 126.277818 44.544 384 44.544 641.861818 254.138182 851.456 512 851.456 769.768727 851.456 979.456 641.861818 979.456 384c0.046545-257.722182-209.687273-467.456-467.456-467.456z m248.087273 320.977455c-7.447273 10.24-15.825455 22.434909-25.041455 36.584727a385.861818 385.861818 0 0 0-25.6 45.754182 376.552727 376.552727 0 0 0-20.619636 52.503272 180.968727 180.968727 0 0 0-8.005818 53.387637c0 21.969455-3.118545 42.263273-9.309091 60.276363a182.644364 182.644364 0 0 1-24.576 48.593455 153.460364 153.460364 0 0 1-37.050182 36.165818 172.450909 172.450909 0 0 1-43.938909 21.597091c3.490909 7.447273 5.585455 15.778909 5.585454 24.576a59.205818 59.205818 0 0 1-118.225454 0c-0.093091-8.704 1.954909-16.989091 5.399273-24.482909-1.536-0.372364-3.304727-0.651636-4.654546-1.024-14.522182-5.026909-28.718545-12.381091-42.589091-22.062546-13.824-10.007273-25.832727-21.876364-35.746909-35.234909-10.519273-14.010182-18.897455-30.114909-24.994909-47.848727a183.994182 183.994182 0 0 1-9.728-61.160727c0-18.711273-2.653091-36.864-7.959273-53.76-5.818182-18.152727-12.706909-35.560727-20.48-51.712-7.400727-15.546182-15.639273-30.626909-25.134545-45.986909-9.448727-15.173818-17.547636-28.858182-23.970909-40.261818-11.636364-18.106182-7.074909-33.233455-3.258182-39.982546 6.423273-11.170909 17.175273-18.618182 30.347636-18.618182h440.785455c6.050909 0 12.008727 2.932364 17.221818 6.004364a38.818909 38.818909 0 0 1 13.218909 12.939636 38.632727 38.632727 0 0 1 6.190546 19.409455 36.770909 36.770909 0 0 1-7.866182 24.343273zM512.465455 634.693818a17.687273 17.687273 0 1 0-0.046546-35.421091 17.687273 17.687273 0 0 0 0 35.374546zM408.808727 91.927273h207.173818v41.425454H408.808727v-41.425454z"  horiz-adv-x="1024" />

    
    <glyph glyph-name="kaiguan" unicode="&#58953;" d="M921.6 347.1c0-51.4-9.4-101.6-28-149.2-29.7-76.1-81-141-148.2-187.8-68.9-47.9-149.8-73.3-234-73.3-55.4 0-109.1 10.9-159.7 32.3-48.9 20.7-92.7 50.2-130.4 87.9s-67.2 81.5-87.9 130.4C112 238 101.1 291.7 101.1 347.1c0 84 25.2 164.8 72.9 233.5 46.6 67.2 111.3 118.5 187.1 148.3 16.9 6.6 35.9-1.6 42.6-18.5 6.6-16.9-1.6-35.9-18.5-42.6-63.7-25.1-118-68.2-157.2-124.6-40-57.7-61.2-125.6-61.2-196.1 0-92 35.8-178.6 100.9-243.7 65.1-65.1 151.6-100.9 243.7-100.9 70.7 0 138.7 21.3 196.5 61.5 56.6 39.3 99.6 93.9 124.6 157.8 15.6 39.9 23.5 82 23.5 125.3 0 43.1-7.8 85.1-23.3 124.8-35.4 90.9-107.9 162.9-199.1 197.5-16.9 6.4-25.5 25.4-19.1 42.3 6.4 17 25.4 25.5 42.3 19.1 108.6-41.2 195-126.8 237-235.1 18.4-47.4 27.8-97.4 27.8-148.6zM511.2 828.7c18.1 0 32.8-14.7 32.8-32.8v-488.3c0-18.1-14.7-32.8-32.8-32.8-18.1 0-32.8 14.7-32.8 32.8V795.9c0 18.1 14.7 32.8 32.8 32.8z"  horiz-adv-x="1024" />

    
    <glyph glyph-name="huanjingchaobiao" unicode="&#59048;" d="M512.041754 811.132296a424.866545 424.866545 0 0 0 253.819981-83.817876 487.746271 487.746271 0 0 0 94.066634 32.296646 511.883078 511.883078 0 0 1-696.099623-0.293754 487.729952 487.729952 0 0 0 93.936077-32.329286A424.882864 424.882864 0 0 0 512.041754 811.132296zM916.99829 519.940248a425.405094 425.405094 0 0 0 22.178444-135.926613c0-219.646571-166.65657-401.072452-380.150622-424.540151h-5.809806L553.281585 440.675563a426.367955 426.367955 0 0 1 470.757485 277.858869A426.367955 426.367955 0 0 1 513.461566 455.249038h-3.55769A426.367955 426.367955 0 0 1 0.044439 718.534432 426.367955 426.367955 0 0 1 470.818243 440.675563l-2.252116-480.826726h-6.984823C249.73554-15.084135 84.906774 165.542081 84.906774 383.997315a425.405094 425.405094 0 0 0 22.178445 135.926614 487.028205 487.028205 0 0 0-68.966967 58.522372 511.997315 511.997315 0 1 1 947.830685 0 487.044525 487.044525 0 0 0-68.950647-58.506053z"  horiz-adv-x="1024" />

    
    <glyph glyph-name="qing" unicode="&#58888;" d="M512.027119 651.852444c-147.784773 0-267.971894-120.18629-267.971894-267.856537 0-147.72039 120.187121-267.960914 267.971894-267.960914 147.672205 0 267.913563 120.240525 267.913563 267.960914C779.940682 531.666154 659.699324 651.852444 512.027119 651.852444zM512.027119 179.33057399999996c-112.794454 0-204.672695 91.795683-204.672695 204.665333 0 112.818485 91.878242 204.559932 204.672695 204.559932 112.878368 0 204.622551-91.741447 204.622551-204.559932C716.64967 271.126256 624.905487 179.33057399999996 512.027119 179.33057399999996zM512.027119 698.393433c8.771117 0 15.798448 7.081279 15.798448 15.848966L527.825567 815.875125c0 8.766664-7.027332 15.85306-15.798448 15.85306-8.713809 0-15.820962-7.086395-15.820962-15.85306l0-101.631702C496.206157 705.474712 503.313309 698.393433 512.027119 698.393433zM333.158146 662.078343c2.919612-5.056156 8.260466-7.924483 13.657604-7.924483 2.696522 0 5.455469 0.729617 7.928901 2.13871 7.58915 4.381797 10.201757 13.995759 5.76145 21.638833l-50.736577 87.972611c-4.356393 7.643074-14.05057 10.17064-21.639719 5.789866-7.58915-4.445242-10.176174-14.054087-5.790104-21.643949L333.158146 662.078343zM233.883144 562.8657370000001l-88.029429 50.704822c-7.534912 4.38589-17.234206 1.798972-21.586505-5.734608-4.38607-7.585769-1.803139-17.258059 5.78601-21.585621l87.975192-50.872644c2.50311-1.464351 5.229309-2.134617 7.900248-2.134617 5.421698 0 10.764599 2.922563 13.715935 7.979742C244.055225 548.7021560000001 241.413963 558.421518 233.883144 562.8657370000001zM197.537912 383.995907c0 8.717546-7.111246 15.798824-15.90897 15.798824l-101.577535 0c-8.742463 0-15.765701-7.082302-15.765701-15.798824 0-8.81783 7.023238-15.790638 15.765701-15.790638l101.577535 0C190.425643 368.20526900000004 197.537912 375.17807700000003 197.537912 383.995907zM218.028412 232.50975000000005l-87.975192-50.760081c-7.58915-4.384867-10.17208-14.054087-5.78601-21.642926 2.918589-5.115508 8.202135-7.979742 13.686258-7.979742 2.666845 0 5.396115 0.729617 7.900248 2.193968l88.029429 50.809199c7.529796 4.334725 10.171057 14.054087 5.76145 21.585621C235.258524 234.30462899999998 225.563324 236.89154799999994 218.028412 232.50975000000005zM354.744652 111.59486700000002c-7.534912 4.334725-17.200435 1.743714-21.586505-5.785773l-50.819468-87.976704c-4.38607-7.529487-1.799046-17.194614 5.790104-21.638833 2.528693-1.463328 5.228286-2.079358 7.924808-2.079358 5.425792 0 10.821906 2.75474 13.714912 7.869225l50.736577 87.917352C364.945386 97.59808399999997 362.333801 107.21204599999999 354.744652 111.59486700000002zM512.027119 69.49809600000003c-8.713809 0-15.820962-7.086395-15.820962-15.854083l0-101.577466c0-8.713452 7.107153-15.795754 15.820962-15.795754 8.771117 0 15.798448 7.082302 15.798448 15.795754l0 101.577466C527.825567 62.411700999999994 520.798236 69.49809600000003 512.027119 69.49809600000003zM690.870507 105.80807000000004c-4.356393 7.588839-14.080247 10.225899-21.611066 5.785773-7.58915-4.381797-10.176174-13.996782-5.794197-21.694091l50.794908-87.917352c2.893005-5.114484 8.293213-7.869225 13.686258-7.869225 2.641262 0 5.425792 0.617054 7.924808 2.079358 7.564589 4.445242 10.14752 14.109346 5.79522 21.638833L690.870507 105.80807000000004zM893.941663 181.74967000000004l-87.971098 50.760081c-7.506259 4.327562-17.234206 1.794879-21.586505-5.79396-4.444401-7.53051-1.799046-17.249873 5.78601-21.585621l87.920954-50.809199c2.581907-1.464351 5.283546-2.193968 7.953462-2.193968 5.455469 0 10.793253 2.864234 13.690351 7.979742C904.147514 167.69558199999994 901.590167 177.36480300000005 893.941663 181.74967000000004zM943.918916 399.794731l-101.577535 0c-8.797724 0-15.825055-7.082302-15.825055-15.798824 0-8.81783 7.027332-15.790638 15.825055-15.790638l101.577535 0c8.709716 0 15.796402 6.971785 15.796402 15.790638C959.715317 392.713452 952.628632 399.794731 943.918916 399.794731zM798.071341 533.243069c2.700616 0 5.425792 0.670266 7.900248 2.134617l87.971098 50.872644c7.648504 4.327562 10.205851 13.999852 5.794197 21.585621-4.330809 7.588839-14.054663 10.229992-21.643813 5.734608l-87.920954-50.704822c-7.585056-4.444219-10.230411-14.163581-5.78601-21.642926C787.278088 536.165632 792.590288 533.243069 798.071341 533.243069zM669.259442 656.2925700000001c2.474456-1.409093 5.224192-2.13871 7.924808-2.13871 5.396115 0 10.793253 2.868327 13.686258 7.924483l50.820491 87.971587c4.38607 7.589862 1.769369 17.199731-5.76145 21.643949-7.530819 4.380774-17.313004 1.853208-21.644836-5.789866l-50.819468-87.972611C659.082245 670.2873050000001 661.669269 660.674367 669.259442 656.2925700000001z"  horiz-adv-x="1024" />

    
    <glyph glyph-name="duoyun" unicode="&#58889;" d="M592.42695312 710.69121094l13.39277344-76.32949219 0.03779297 0.00703125c0.028125-0.17578125 0.04833984-0.3515625 0.07910156-0.52734375 2.63232422-15.00029297 16.92685547-25.02685547 31.92714844-22.39453125 14.99941406 2.63144531 25.02597656 16.92597656 22.39453125 31.92626953-0.03164063 0.17578125-0.07207031 0.34804688-0.10546875 0.52207031l0.03867188 0.00703125-13.39453125 76.32949219-0.03251953-0.00615234c-2.78085937 14.81835938-16.96904297 24.68496094-31.86035157 22.07109375-14.89130859-2.61298828-24.87304688-16.71855469-22.44375-31.59931641l-0.03339844-0.00615234zM953.675 504.13945313c-2.63144531 14.99941406-16.92597656 25.02597656-31.92626953 22.39453124-0.17578125-0.03164063-0.34804688-0.07207031-0.52382813-0.10546875l-0.00615234 0.03779297-76.33037109-13.39277343 0.00615234-0.03339844c-14.81835938-2.78085937-24.68408203-16.96904297-22.07109375-31.86035156 2.61298828-14.89130859 16.71943359-24.87392578 31.59931641-22.44375l0.00615234-0.03251953 76.32949219 13.39365234-0.00615235 0.03779297c0.17578125 0.028125 0.3515625 0.04833984 0.52734375 0.07910156 15.00117187 2.63144531 25.02685547 16.92509766 22.39541016 31.92539063zM767.10957031 597.6014648400001c12.37763672-8.68183594 29.41083984-5.765625 38.21484375 6.47490235l0.0272461-0.01933594 44.50341796 63.44296875-0.03251953 0.02197266c0.10546875 0.14414062 0.21533203 0.28212891 0.31640625 0.42890625 8.74599609 12.46728516 5.72871094 29.66572266-6.73945312 38.41083984-12.46728516 8.74511719-29.66484375 5.72783203-38.41083985-6.73945312-0.10283203-0.14677734-0.19511719-0.29707031-0.29443359-0.44472657l-0.03251953 0.02197266-44.50253906-63.44384766 0.02724609-0.01933593c-8.51132812-12.44443359-5.45449219-29.45214844 6.92314453-38.13486329zM421.37597656 591.7250976600001l-0.01933593-0.028125 63.44472656-44.50253907 0.02197265 0.03164063c0.14414062-0.10546875 0.28125-0.21445313 0.42890625-0.31640625 12.46728516-8.74511719 29.66484375-5.72783203 38.41083985 6.73945312 8.74511719 12.46816406 5.72783203 29.66572266-6.74033203 38.41083985-0.14677734 0.10283203-0.29619141 0.19599609-0.44384766 0.2953125l0.02197266 0.03164062-63.44384766 44.50253907-0.01933594-0.0272461c-12.4453125 8.51220703-29.45390625 5.45449219-38.13574219-6.92314453-8.68271484-12.37763672-5.76650391-29.41171875 6.47402344-38.21484375zM910.08300781 315.75117187c-0.14677734 0.10283203-0.29619141 0.19511719-0.44384765 0.2944336l0.02285156 0.03251953-63.44384766 44.50253906-0.01933594-0.028125c-12.4453125 8.51220703-29.45390625 5.45537109-38.13574218-6.92226562s-5.765625-29.41083984 6.47490234-38.21484375l-0.01933594-0.028125 63.44384766-44.50253906 0.02197266 0.03251953c0.14414062-0.10546875 0.28300781-0.21533203 0.42890625-0.31728516 12.46816406-8.74511719 29.66572266-5.72783203 38.41171875 6.73945313 8.74335938 12.46816406 5.72607422 29.66484375-6.74121094 38.41171875zM755.26015625 363.47929687c28.37109375 28.30078125 42.94072266 69.53027344 35.49023438 111.99462891-12.12890625 69.1171875-77.99150391 115.31689453-147.10869141 103.18886719-44.08154297-7.734375-78.82910156-37.33066406-95.08007813-75.68525391-34.94882813 19.87822266-75.375 31.23369141-118.45546875 31.23369141-98.75390625 0-183.56044922-59.65400391-220.38925781-144.88769531C127.62792969 371.94492187000003 66.02099609 299.07744141 66.02099609 211.80996094c0-100.21816406 81.24345703-181.46074219 181.4616211-181.46074219 2.30625 0 4.60195313 0.04833984 6.88798828 0.13359375h383.90537109v0.24697266c102.11835937 2.30097656 184.19414062 85.79619141 184.19414063 188.4665039 0 57.909375-26.11933594 109.70507813-67.20996094 144.28388672z m-103.98339844 171.66708985c45.08525391 7.91015625 88.04443359-22.22402344 95.95634766-67.30839844 5.44746094-31.04912109-7.15429688-61.08486328-30.25371094-79.36347656-22.87265625 11.23857422-48.35039062 17.98417969-75.28886719 19.07226562-14.40175781 26.83300781-33.76054687 50.60742188-56.84765625 70.10507813 9.29882813 33.47578125 36.88857422 52.30986328 66.43476563 57.49453125z m-13.00078125-444.3046875s-13.77333984-0.31992188-17.23535156 0.07734375H247.1609375c-0.07382812 0-0.14501953-0.00263672-0.21884766-0.00263672l-0.24257812 0.00263672h-1.07226563v0.0140625c-68.51953125 0.70576172-118.79296875 51.40458984-118.79296875 120.09111328 0 69.12597656 50.98183594 120.1078125 120.1078125 120.1078125 0.76376953 0 1.52314453-0.01582031 2.28339844-0.02900391 4.57910156 19.8984375 17.41201172 43.62714844 27.81035156 60.51621094l-0.09404296 0.0131836c10.79121094 17.49199219 19.34648437 28.00195313 35.1421875 41.01328125 0.09492188 0.07822266 0.19160156 0.1546875 0.28740234 0.23291015 0.83759766 0.68730469 1.68134766 1.36669922 2.53125 2.0390625 0.43330078 0.34277344 0.86660156 0.68642578 1.30341797 1.0265625 0.38144531 0.29707031 0.76728516 0.58886719 1.15136719 0.88242188 31.32509766 24.02929688 70.51289063 38.3203125 113.04316406 38.3203125 83.17792969 0 153.58974609-54.62578125 177.33691406-129.95683594a134.66337891 134.66337891 0 0 0 28.72265625 3.09199219c9.23027344 0 18.24169922-0.93251953 26.94726563-2.70703125l-0.00439454 0.01757812c3.22294922-0.66005859 6.40107422-1.44404297 9.53613282-2.33085937l0.60117187-0.17226563a136.82724609 136.82724609 0 0 0 4.82871094-1.490625c0.55810547-0.1828125 1.11533203-0.36650391 1.66992187-0.55722656 0.18720703-0.06416016 0.37265625-0.13183594 0.55810547-0.19599609 52.42148437-18.25400391 84.98759766-63.04482422 84.98759766-121.68632813-0.00087891-73.50117188-54.0421875-127.34472656-127.30957031-128.31855469z"  horiz-adv-x="1024" />

    
    <glyph glyph-name="humidity" unicode="&#58881;" d="M339.7 13.5C196.6 13.5 80.2 129.89999999999998 80.2 273c0 133.2 204.8 395.1 228.2 424.5 5.8 7.3 14.5 11.6 23.8 11.7 9.4 0.1 18.1-3.9 24.1-11 1.5-1.8 37.7-44.8 82.2-105.2 10.1-13.8 7.2-33.2-6.6-43.3-13.8-10.1-33.2-7.2-43.3 6.6-21.3 29-40.9 54-55.3 72.1-69.2-92-191.2-271.5-191.2-355.4 0-108.9 88.6-197.6 197.6-197.6S537.3 164.10000000000002 537.3 273c0 17.1 13.9 31 31 31s31-13.9 31-31c-0.1-143.1-116.5-259.5-259.6-259.5zM363.7 427.2c-27.9-59.7-46.8-115.7-46.8-158.4 0-164.6 133.4-298 298-298s298 133.4 298 298c0 12.8-1.9 26.9-5.5 41.9-327.2-33.9-284.9 194.9-543.7 116.5zM333.6 328.4c-38.2-239.9 123-357.7 287.3-357.7 92.8 0 144.9 12.1 199.6 78.6-261.5-20.7-428.7 99.2-486.9 279.1zM614.9-60.10000000000002C433.5-60.10000000000002 286 87.5 286 268.79999999999995c0 173.4 283.4 532.4 295.5 547.6 5.8 7.3 14.5 11.6 23.8 11.7 9.3 0.1 18.1-3.9 24.1-11 2-2.3 49-58.2 106.8-136.6 10.1-13.8 7.2-33.2-6.6-43.3-13.8-10.1-33.2-7.2-43.3 6.6-31.8 43.2-60.6 79.8-79.9 103.7C517 629.9 347.9 383.70000000000005 347.9 268.79999999999995c0-147.2 119.8-267 267-267s267 119.8 267 267c0 29.7-13.2 87.9-76.4 196.2-8.6 14.8-3.6 33.7 11.2 42.3 14.8 8.6 33.7 3.6 42.3-11.2 57.1-97.9 84.8-172.2 84.8-227.4 0-181.3-147.6-328.8-328.9-328.8z"  horiz-adv-x="1024" />

    
    <glyph glyph-name="windspped1" unicode="&#58884;" d="M721.99873761 837.1901728400001c21.30421976 0 42.49138337-4.33107765 61.22036777-12.40795218 16.62197366-7.25748146 30.78576812-17.44136673 40.03320415-28.56170121 13.812626-16.97314212 11.35444679-29.49815043 10.41799758-33.7121719-7.72570605-37.69208112-21.77244437-55.4846163-33.24394733-66.72200694-17.44136673-17.09019828-42.25727105-31.01988043-71.05308455-46.93951716-27.50819584-15.33435599-58.76218857-32.65866655-91.30379896-57.24045858-14.16379445-10.65210988-27.15702737-22.47478128-38.62853034-34.9997896l-33.24394733-36.40446344-1.87289843 7.25748145c-12.05678371 47.17362946-16.85608595 90.4844059-14.16379446 128.76176778 3.04345996 42.37432721 15.45141212 78.66173448 36.87268805 107.92577263 18.49487209 25.28412894 40.50142877 44.3642818 65.43438924 56.77223395 21.77244437 10.76916604 45.18367487 16.2708052 69.53135461 16.2708052M576.02971542 482.04180611l43.42783258-18.72898438c36.98974418-15.91963673 60.75214317-52.20704403 60.75214316-92.47436049 0-2.10701075-0.11705614-4.44813379-0.2341123-6.78925685l-2.80934765-42.84255183-33.12689117-27.62525198c-18.2607598-15.33435599-40.61848492-23.41123051-64.49794002-23.41123052-18.9630967 0-37.4579688 5.26752687-53.49466172 15.334356l-38.16030571 23.99651124-7.49159376 44.13016951c-0.93644921 5.61869532-1.40467382 11.35444679-1.40467384 17.09019828 0 18.9630967 5.26752687 37.4579688 15.33435598 53.37760553 9.71566066 15.56846828 23.6453428 28.21053274 39.916148 36.52151959l41.78904645 21.4212759m-419.99747521-85.91921593c34.41450883 0 63.79560312-17.55842289 104.41408805-41.90610262 27.03997122-16.15374905 57.70868321-34.53156499 95.16665199-50.45120173 18.37781595-7.84276221 37.10680036-13.57851369 55.71872858-17.2072544l42.84255184-8.42804298-0.81939307-0.81939308c-32.30749809-32.54161039-65.20027695-57.94279549-97.50777506-75.61827451-35.81918267-19.54837746-71.17014075-29.49815043-105.11642495-29.49815044-6.32103224 0-12.75912062 0.35116845-19.197209 1.05350537-23.6453428 2.57523534-45.300731 8.66215529-64.38088389 18.2607598-16.97314212 8.42804297-32.07338578 19.66543363-44.83250641 33.24394732-22.82594974 24.34767973-37.80913726 56.77223398-41.32082185 88.96267589-2.22406691 20.25071439 0.35116845 39.09675495 7.02336916 53.0264371 7.72570605 16.15374905 18.37781595 19.78248977 21.77244437 20.95305128 17.09019828 5.61869532 32.19044193 8.42804297 46.23718024 8.428043m567.37117121-92.59141663h0.23411234c49.16358407-12.75912062 91.06968664-30.43459966 124.43069011-52.20704404 37.22385649-24.34767973 63.79560312-54.07994246 78.8958468-88.49445129 33.71217194-76.4376676 9.01332375-133.44401387-8.77921144-160.71809739-12.29089601-18.9630967-28.32758892-34.76567729-46.35423639-45.76895565-15.45141212-9.48154834-31.48810504-14.74907522-45.18367487-14.7490752-10.06682911 0-18.02664747 2.80934765-24.58179204 8.54509912-28.79581353 25.51824123-37.10680036 46.5883487-41.2037657 62.15681698-6.20397609 23.6453428-5.7357515 52.08998788-5.15047071 84.98276672 0.46822461 31.48810504 1.05350536 67.30728769-3.86285302 107.69166033-2.80934765 22.47478128-7.95981839 44.13016951-15.56846826 64.26382773l-12.87617682 34.29745269m-1.40467381 592.18707555c-62.97621004 0-131.21994697-27.3911397-182.13937331-96.92249429-60.635087-82.87575599-56.65517781-190.80152859-32.19044195-285.9681806-51.73881942-26.22057816-87.32388977-80.06640832-87.32388977-142.10616912 0-9.13037989 0.81939306-18.14370364 2.22406691-26.92291508-14.16379445 2.80934765-28.91286966 7.25748146-44.13016952 13.69556985-92.12319203 39.09675495-142.69144991 97.03955044-222.52374592 97.03955042-19.54837746 0-40.73554107-3.51168459-64.73205234-11.47150294C-31.14054768 402.20951007 4.56157885 138.95022311000002 225.21242635 114.95371182999997c8.54509914-0.93644921 17.09019828-1.40467382 25.51824124-1.40467382 94.69842737 0 179.09591335 56.77223398 244.17913413 122.32367939 24.46473588-15.45141212 53.4946617-24.34767973 84.6315983-24.34767975 38.86264263 0 74.44771301 13.92968215 102.07296497 36.9897442 5.7357515-15.21729985 9.94977295-32.07338578 12.29089603-50.80237018 15.10024366-123.61129706-27.03997122-206.01882842 69.53135459-291.58687592 18.02664747-16.03669291 40.15026031-23.29417436 63.44443463-23.29417433 101.25357192 0 226.50365511 138.36037228 153.69472826 303.40954731-42.95960796 97.62483119-144.09612374 148.31014522-242.18917954 173.82838647 0.2341123 3.51168459 0.35116845 7.14042531 0.35116846 10.65210989 0 65.5514454-39.56497957 121.73839861-96.10310121 146.20313448 8.77921144 9.59860451 18.9630967 18.84604055 30.66871196 27.74230814 99.49772963 74.91593761 191.97209011 79.5981837 217.72444366 206.01882842C906.83040243 828.05979295 821.02824262 895.7182491 721.99873761 895.7182491z"  horiz-adv-x="1024" />

    
    <glyph glyph-name="tongjifenxi" unicode="&#58971;" d="M1024 384h-56.888889c0-250.311111-204.8-455.111111-455.111111-455.111111s-455.111111 204.8-455.111111 455.111111 204.8 455.111111 455.111111 455.111111V896C227.555556 896 0 668.444444 0 384s227.555556-512 512-512 512 227.555556 512 512zM961.422222 440.888889h56.888889c0 17.066667-5.688889 39.822222-11.377778 56.888889C967.111111 691.2 819.2 839.111111 625.777778 884.622222c-17.066667 5.688889-39.822222 5.688889-56.888889 11.377778v-455.111111h392.533333zM625.777778 822.044444C904.533333 748.088889 950.044444 497.777778 950.044444 497.777778H625.777778V822.044444z"  horiz-adv-x="1024" />

    
    <glyph glyph-name="kongzhi" unicode="&#59314;" d="M925.1 558.2c-22.6 53.4-54.9 101.4-96.1 142.6-41.3 41.2-89.1 73.5-142.6 96.1C631 820.3 572.3 832.1 511.8 832.1c-60.6 0-119.3-11.9-174.6-35.3-53.4-22.6-101.4-54.9-142.6-96.1-41.2-41.3-73.5-89.1-96.1-142.6-23.5-55.4-35.3-114-35.3-174.6 0-60.6 11.9-119.3 35.3-174.6 22.6-53.4 54.9-101.4 96.1-142.6 41.3-41.2 89.1-73.5 142.6-96.1 55.4-23.5 114.1-35.3 174.6-35.3s119.2 11.8 174.6 35.3c53.4 22.6 101.4 54.9 142.6 96.1 41.2 41.3 73.5 89.1 96.1 142.6 23.5 55.4 35.3 114 35.3 174.6 0 60.7-12 119.4-35.3 174.7zM511.8 762.4c91.9 0 176.3-33 242-87.6l-76.5-76.6c-47.2 36.5-104.8 56.4-165.5 56.4s-118.3-19.8-165.5-56.3l-76.5 76.5c65.7 54.7 150.1 87.6 242 87.6z m0-580.6c-111.2 0-201.6 90.5-201.6 201.6S400.7 585 511.8 585c111.2 0 201.6-90.5 201.6-201.6S623 181.8 511.8 181.8zM220.6 625.6l76.5-76.6c-36.5-47.2-56.4-104.8-56.4-165.5s19.8-118.3 56.4-165.6l-76.5-76.5c-54.7 65.7-87.7 150.1-87.7 242.1-0.1 91.9 32.9 176.4 87.7 242.1z m291.2-621.1c-92 0-176.4 33-242.1 87.7l76.6 76.5c47.2-36.5 104.9-56.4 165.5-56.4 60.7 0 118.3 19.9 165.5 56.4l76.5-76.5c-65.6-54.7-150-87.7-242-87.7z m291.3 136.9l-76.5 76.5c36.5 47.2 56.4 104.8 56.4 165.5S763.2 501.8 726.6 549l76.5 76.5c54.7-65.7 87.7-150.2 87.7-242.1s-33-176.3-87.7-242z"  horiz-adv-x="1024" />

    
    <glyph glyph-name="icon_shebeikongzhi_pressed" unicode="&#58938;" d="M195.047619 774.095238h215.771429a73.142857 73.142857 0 0 0 73.142857-73.142857v-224.572952a73.142857 73.142857 0 0 0-73.142857-73.142858H195.047619a73.142857 73.142857 0 0 0-73.142857 73.142858V700.952381a73.142857 73.142857 0 0 0 73.142857 73.142857z m0-453.266286h215.771429a73.142857 73.142857 0 0 0 73.142857-73.142857v-224.597333a73.142857 73.142857 0 0 0-73.142857-73.142857H195.047619a73.142857 73.142857 0 0 0-73.142857 73.142857V247.710476a73.142857 73.142857 0 0 0 73.142857 73.142857z m442.514286 0H853.333333a73.142857 73.142857 0 0 0 73.142857-73.142857v-224.597333a73.142857 73.142857 0 0 0-73.142857-73.142857h-215.771428a73.142857 73.142857 0 0 0-73.142857 73.142857V247.710476a73.142857 73.142857 0 0 0 73.142857 73.142857z m77.945905 288.426667V727.917714a29.93981 29.93981 0 1 0 59.879619 0v-118.662095h121.660952a29.42781 29.42781 0 0 0 0-58.855619h-121.660952v-118.637714a29.93981 29.93981 0 1 0-59.879619 0v118.637714h-121.660953a29.42781 29.42781 0 0 0 0 58.855619h121.660953z"  horiz-adv-x="1024" />

    
    <glyph glyph-name="icon_shebeikongzhi_normal" unicode="&#58939;" d="M180.784762 725.040762a9.801143 9.801143 0 0 1-9.825524-9.825524v-253.147428c0-5.412571 4.388571-9.801143 9.825524-9.801143h238.299428c5.412571 0 9.825524 4.388571 9.825524 9.801143V715.215238a9.801143 9.801143 0 0 1-9.825524 9.825524H180.784762z m0 49.054476h238.299428a58.88 58.88 0 0 0 58.88-58.88v-253.147428a58.88 58.88 0 0 0-58.88-58.85562H180.784762A58.88 58.88 0 0 0 121.904762 462.06781V715.215238A58.88 58.88 0 0 0 180.784762 774.095238z m0-502.369524a9.801143 9.801143 0 0 1-9.825524-9.801143V8.777143c0-5.436952 4.388571-9.825524 9.825524-9.825524h238.299428c5.412571 0 9.825524 4.388571 9.825524 9.825524V261.924571a9.801143 9.801143 0 0 1-9.825524 9.801143H180.784762z m0 49.054476h238.299428a58.88 58.88 0 0 0 58.88-58.855619V8.777143a58.88 58.88 0 0 0-58.88-58.88H180.784762A58.88 58.88 0 0 0 121.904762 8.777143V261.924571a58.88 58.88 0 0 0 58.88 58.855619z m435.175619-49.054476a9.801143 9.801143 0 0 1-9.825524-9.801143V8.777143c0-5.436952 4.388571-9.825524 9.825524-9.825524h238.299429c5.412571 0 9.801143 4.388571 9.801142 9.825524V261.924571a9.801143 9.801143 0 0 1-9.801142 9.801143h-238.299429z m0 49.054476h238.299429a58.88 58.88 0 0 0 58.88-58.855619V8.777143a58.88 58.88 0 0 0-58.88-58.88h-238.299429a58.88 58.88 0 0 0-58.88 58.88V261.924571a58.88 58.88 0 0 0 58.88 58.855619zM705.682286 609.255619V728.405333a29.42781 29.42781 0 0 0 58.855619 0v-119.149714h119.149714a29.42781 29.42781 0 0 0 0-58.88h-119.149714v-119.149714a29.42781 29.42781 0 1 0-58.855619 0v119.149714h-119.174096a29.42781 29.42781 0 0 0 0 58.88h119.174096z"  horiz-adv-x="1024" />

    
    <glyph glyph-name="zaoshenghuanjingzhiliangfenxi" unicode="&#59202;" d="M784 524.8c-16 25.6-35.2 44.8-44.8 54.4-9.6 9.6-28.8 9.6-38.4-3.2-9.6-9.6-9.6-28.8 3.2-38.4l9.6-9.6c9.6-9.6 19.2-22.4 25.6-35.2 57.6-86.4 57.6-179.2-38.4-278.4-9.6-9.6-9.6-28.8 0-38.4 9.6-9.6 28.8-9.6 38.4 0 112 121.6 112 243.2 44.8 348.8z m112 124.8c-16 25.6-35.2 48-54.4 70.4-9.6 12.8-19.2 19.2-25.6 25.6-9.6 9.6-28.8 9.6-38.4-3.2-9.6-9.6-9.6-28.8 3.2-38.4 3.2-3.2 12.8-9.6 22.4-22.4 16-19.2 32-38.4 48-64 105.6-160 105.6-336-70.4-518.4-9.6-9.6-9.6-28.8 0-38.4 9.6-9.6 28.8-9.6 38.4 0 195.2 204.8 195.2 409.6 76.8 588.8z m-412.8 160L265.6 624H156.8C99.2 624 48 576 48 515.2v-272c0-60.8 48-108.8 108.8-108.8h96L483.2-48c54.4-41.6 105.6-16 105.6 51.2V758.4c0 70.4-54.4 96-105.6 51.2z m51.2-803.2c0-22.4-3.2-22.4-19.2-9.6L278.4 182.4c-3.2 3.2-9.6 6.4-16 6.4H156.8c-28.8 0-54.4 25.6-54.4 54.4v272c0 28.8 25.6 54.4 54.4 54.4h118.4c6.4 0 12.8 3.2 16 6.4l224 192c16 12.8 16 12.8 16-6.4v-755.2z"  horiz-adv-x="1024" />

    
    <glyph glyph-name="qiya1" unicode="&#58917;" d="M865.08352 314.666667c8.533333 0 17.066667 3.2 23.466667 9.6 6.4 6.4 9.6 13.866667 9.6 23.466666 3.2 137.6-69.333333 266.666667-188.8 337.066667-119.466667 70.4-266.666667 70.4-386.133334 0-119.466667-70.4-190.933333-198.4-188.8-337.066667 0-18.133333 14.933333-32 32-32 18.133333 0 32 14.933333 32 32-2.133333 115.2 57.6 221.866667 155.733334 280.533334 99.2 57.6 221.866667 57.6 321.066666 0s158.933333-165.333333 155.733334-280.533334c0-8.533333 3.2-17.066667 9.6-23.466666 7.466667-6.4 16-9.6 24.533333-9.6z m0 0M512.016853 853.333333C290.150187 853.333333 93.88352 710.4 25.616853 500.266667c-69.333333-210.133333 5.333333-441.6 184.533334-572.8 7.466667-5.333333 16-7.466667 24.533333-6.4 8.533333 1.066667 16 6.4 21.333333 12.8 10.666667 14.933333 7.466667 35.2-7.466666 45.866666C90.68352 94.933333 26.68352 297.6 87.48352 482.133333c60.8 184.533333 234.666667 308.266667 428.8 306.133334 194.133333-2.133333 365.866667-129.066667 422.4-314.666667 57.6-185.6-10.666667-387.2-170.666667-499.2-14.933333-10.666667-18.133333-30.933333-7.466666-45.866667s30.933333-18.133333 45.866666-7.466666c183.466667 128 261.333333 360.533333 194.133334 573.866666C933.350187 708.266667 736.016853 853.333333 512.016853 853.333333z m0 0M565.350187 446.933333c-50.133333 21.333333-108.8 7.466667-142.933334-34.133333l-96 41.6c-10.666667 5.333333-23.466667 4.266667-34.133333-2.133333-9.6-7.466667-14.933333-19.2-13.866667-30.933334 2.133333-11.733333 9.6-22.4 21.333334-26.666666l96-41.6c-9.6-62.933333 30.933333-121.6 92.8-136.533334 61.866667-14.933333 123.733333 20.266667 144 80 20.266667 59.733333-8.533333 124.8-67.2 150.4z m0 0"  horiz-adv-x="1024" />

    
    <glyph glyph-name="yewan" unicode="&#58961;" d="M1049.491291 450.12744a283.095375 283.095375 0 0 1-272.054457 204.038239 271.554491 271.554491 0 0 1-119.023175-25.508685c-8.499423 68.016218-42.507532 127.522597-93.514488 178.539969A299.313025 299.313025 0 0 1 403.368464 892.212028c-8.499423 8.499423-16.998847 0-25.508685 0a31.24788 31.24788 0 0 1-8.499424-25.508686c25.508686-93.514488-8.499423-195.538816-76.515641-263.523786s-170.03013-102.024328-263.523787-76.515642a31.24788 31.24788 0 0 1-25.508686-8.499423c0-8.499423-8.499423-16.998847 0-25.508686 16.998847-59.506379 42.507532-119.023174 93.514489-161.530707 25.508686-16.998847 42.507532-42.507532 68.016218-51.038204a300.052558 300.052558 0 0 1-25.508686-119.023174c0-153.031283 127.522597-289.06372 280.553881-289.06372h612.125134c153.031283 0 280.553881 136.032437 280.55388 289.06372-0.020832 144.53186-119.044006 280.564297-263.575866 289.06372zM122.804168 365.112375a248.649796 248.649796 0 0 0-59.516795 102.024328 357.173682 357.173682 0 0 1 272.054457 93.514488 357.173682 357.173682 0 0 1 93.514488 272.054458c34.008109-16.998847 76.515642-34.008109 102.024328-68.016219A323.936354 323.936354 0 0 0 615.895711 594.6593c-59.516795-34.008109-93.514488-93.514488-110.523751-161.530706a302.062838 302.062838 0 0 1-85.015065 16.998846 279.001903 279.001903 0 0 1-229.546925-127.522597c-25.49827 8.499423-42.507532 25.49827-68.005802 42.507532z m909.688277-442.095003H420.356895c-127.522597 0-229.546925 110.523751-229.546925 238.046348s102.024328 238.046348 229.546925 238.046349a305.656344 305.656344 0 0 0 93.514488-16.998847h25.508686c8.499423 0 8.499423 8.499423 16.998847 16.998847a222.391161 222.391161 0 0 0 221.057918 204.048655 235.786085 235.786085 0 0 0 229.546925-187.039393c0-8.499423 16.998847-17.009263 25.508686-17.009262h8.499423c127.522597 0 229.546925-110.523751 229.546925-238.046349s-110.523751-238.046348-238.056764-238.046348z"  horiz-adv-x="1313" />

    
    <glyph glyph-name="caozuo" unicode="&#58988;" d="M512-54.857143A438.857143 438.857143 0 1 1 512 822.857143a438.857143 438.857143 0 0 1 0-877.714286z m0-73.142857A512 512 0 1 0 512 896a512 512 0 0 0 0-1024zM292.571429 310.857143a73.142857 73.142857 0 1 0 0 146.285714 73.142857 73.142857 0 0 0 0-146.285714z m219.428571 0a73.142857 73.142857 0 1 0 0 146.285714 73.142857 73.142857 0 0 0 0-146.285714z m219.428571 0a73.142857 73.142857 0 1 0 0 146.285714 73.142857 73.142857 0 0 0 0-146.285714z"  horiz-adv-x="1024" />

    
    <glyph glyph-name="huanjing" unicode="&#59179;" d="M511.59 836.65c60.477 0 119.11-11.87 174.368-35.201 53.313-22.513 101.203-54.848 142.441-95.984s73.472-89.026 95.984-142.442c23.331-55.155 35.201-113.891 35.201-174.367s-11.87-119.11-35.2-174.368c-22.513-53.313-54.849-101.202-95.985-142.44s-89.025-73.472-142.44-95.985c-55.156-23.33-113.892-35.2-174.368-35.2s-119.11 11.87-174.368 35.2c-53.313 22.513-101.203 54.848-142.44 95.984s-73.473 89.026-95.985 142.441c-23.33 55.155-35.2 113.892-35.2 174.368s11.87 119.11 35.2 174.367c22.512 53.314 54.848 101.203 95.984 142.442 41.136 41.136 89.026 73.471 142.441 95.984 55.155 23.33 113.892 35.2 174.368 35.2m0 51.165c-275.673 0-499.056-223.485-499.056-499.056s223.485-499.055 499.056-499.055 499.055 223.485 499.055 499.055S787.263 887.814 511.591 887.814zM299.566 153.505c-9.619 0-17.498 7.777-17.498 17.498 0 59.863 17.498 86.161 51.983 141.418-8.8 12.689-15.554 26.401-19.954 40.727-12.791 41.852-9.721 83.91-3.275 107.342 9.824 35.201 26.503 62.42 50.858 83.296 22.512 19.237 51.88 32.95 89.742 42.057 64.16 15.349 149.706 16.577 263.495 16.577h30.187c5.116 0 9.824-2.149 13.2-6.037l0.103-0.103 0.204-0.204c3.275-3.991 4.707-9.108 3.889-14.224-15.247-88.002-38.987-160.349-70.71-215.094-27.218-47.071-60.68-81.76-99.258-103.147-30.493-16.885-63.955-25.378-99.258-25.378-6.651 0-13.2 0.307-19.545 0.819-29.777 2.558-53.927 10.437-68.867 16.475-6.856 2.865-13.712 6.242-20.26 10.13-8.29 4.912-10.95 15.656-6.038 23.945 3.172 5.219 8.902 8.493 15.042 8.493 3.172 0 6.242-0.818 8.903-2.456a111.387 111.387 0 0 1 15.656-7.777c13.61-5.525 41.34-14.837 74.904-14.837 29.47 0 57.304 7.163 82.682 21.182 71.015 39.294 121.054 131.185 148.58 273.012h-7.572c-229.42 0-341.06-4.912-372.066-116.245-4.195-15.145-8.288-50.653 2.968-87.695 2.046-6.754 4.81-13.303 8.186-19.648 11.358 14.94 23.842 29.062 36.94 42.262 29.369 29.368 62.83 54.336 96.598 72.04 33.564 17.6 65.286 26.912 91.687 26.912 9.619 0 17.498-7.777 17.498-17.499 0-9.618-7.777-17.498-17.498-17.498-20.466 0-47.276-8.186-75.519-22.921-30.698-16.066-61.09-38.783-88.104-65.797-37.555-37.453-100.487-84.217-100.487-190.229 0-9.619-7.777-17.396-17.396-17.396z"  horiz-adv-x="1024" />

    
    <glyph glyph-name="yunhangzhuangtai" unicode="&#59256;" d="M824.83 384.39c0 171.94-139.89 311.83-311.83 311.83S201.17 556.33 201.17 384.39 341.06 72.56 513 72.56s311.83 139.89 311.83 311.83zM513 138.21c-135.74 0-246.18 110.44-246.18 246.18S377.26 630.57 513 630.57s246.18-110.44 246.18-246.18S648.74 138.21 513 138.21zM935.72 317.86c-17.65 4.21-35.33-6.74-39.49-24.39-33.95-143.62-148.68-258.35-292.3-292.3-17.65-4.17-28.56-21.85-24.39-39.49 3.57-15.11 17.04-25.28 31.92-25.28 2.49 0 5.03 0.29 7.57 0.89 167.59 39.61 301.48 173.5 341.09 341.08 4.17 17.64-6.76 35.32-24.4 39.49zM422.08 1.17c-143.62 33.95-258.35 148.68-292.3 292.3-4.16 17.63-21.74 28.54-39.49 24.39-17.65-4.17-28.57-21.85-24.39-39.49 39.61-167.59 173.5-301.47 341.09-341.08 2.54-0.6 5.07-0.89 7.57-0.89 14.87 0 28.35 10.18 31.92 25.28 4.16 17.64-6.76 35.32-24.4 39.49zM90.28 450.92c2.54-0.6 5.07-0.89 7.57-0.89 14.87 0 28.35 10.18 31.92 25.28 33.95 143.62 148.68 258.35 292.3 292.3 17.65 4.17 28.56 21.85 24.39 39.49-4.16 17.63-21.74 28.58-39.49 24.39C239.39 791.88 105.5 658 65.89 490.41c-4.18-17.64 6.75-35.32 24.39-39.49zM603.92 767.61c143.62-33.95 258.35-148.68 292.3-292.3 3.57-15.11 17.04-25.28 31.92-25.28 2.49 0 5.03 0.29 7.57 0.89 17.65 4.17 28.57 21.85 24.39 39.49C920.5 658 786.61 791.88 619.02 831.5c-17.69 4.21-35.32-6.74-39.49-24.39-4.17-17.65 6.75-35.33 24.39-39.5z"  horiz-adv-x="1024" />

    
    <glyph glyph-name="canshuguanli" unicode="&#59001;" d="M940 525.24A387.13 387.13 0 0 1 910 597a149.24 149.24 0 0 1-35 198.19C815.39 841 731.83 834.79 679.57 783.58a388.1 388.1 0 0 1-417.83-135.29 392 392 0 0 1-30.56-46.1 149.25 149.25 0 0 1-35.29-296.37 387.9 387.9 0 0 1 364.05-282 149.28 149.28 0 0 1 284.91 78.78A151.87 151.87 0 0 1 838 132a391.59 391.59 0 0 1 38.46 43A384.65 384.65 0 0 1 957 405.89a389.34 389.34 0 0 1-17 119.35zM784 762.12a85.2 85.2 0 1 0-67.64-33.21A84.89 84.89 0 0 0 784 762.12zM131.25 442.81a85.23 85.23 0 1 0 32.52-56.56 84.66 84.66 0 0 0-32.52 56.56z m633.14-411.45a85.25 85.25 0 1 0 17 63 85.34 85.34 0 0 0-17-63zM825.75 214a329.45 329.45 0 0 0-22.37-26.08 153.63 153.63 0 0 1-15.48 13.7 149.28 149.28 0 0 1-240.24-113.21A323.93 323.93 0 0 0 261 311.54a149.28 149.28 0 0 1 32.18 269.84 328.55 328.55 0 0 0 19.24 27.87c78.67 102.17 207.93 147 330.86 117.81a149.35 149.35 0 0 1 140.35-199.42 151.41 151.41 0 0 1 19.54 1.27 148.93 148.93 0 0 1 59.11 20.88c51.53-108.61 38.99-237.71-36.53-335.79z"  horiz-adv-x="1024" />

    
    <glyph glyph-name="nenghao1" unicode="&#59216;" d="M512 896C229.376 896 0 666.624 0 384s229.376-512 512-512 512 229.376 512 512S794.624 896 512 896z m0-971.776c-253.44 0-459.776 206.336-459.776 459.776S258.56 843.776 512 843.776s459.776-206.336 459.776-459.776-206.336-459.776-459.776-459.776zM667.136 422.4h-91.136c-10.752 0-18.432 9.216-16.896 19.456l34.816 208.896c3.072 16.896-18.944 26.624-29.696 13.312l-229.888-287.232c-8.704-11.264-1.024-27.136 13.312-27.136h91.136c10.24 0 18.432-9.216 16.384-19.456l-34.816-208.896c-3.072-16.896 18.944-26.624 29.696-13.312l229.888 287.232c9.216 10.752 1.536 27.136-12.8 27.136z"  horiz-adv-x="1024" />

    
    <glyph glyph-name="wulianwang1" unicode="&#58908;" d="M983.552 583.168c-25.6 60.928-62.464 115.712-109.568 162.816s-101.888 83.968-162.816 109.568C648.192 882.688 581.12 896 512 896S375.808 882.688 312.832 855.552c-60.928-25.6-115.712-62.464-162.816-109.568S66.048 644.096 40.448 583.168C13.312 520.192 0 453.12 0 384s13.312-136.192 40.448-199.168c25.6-60.928 62.464-115.712 109.568-162.816s101.888-83.968 162.816-109.568c62.976-26.624 130.048-40.448 199.168-40.448s136.192 13.312 199.168 40.448c60.928 25.6 115.712 62.464 162.816 109.568s83.968 101.888 109.568 162.816c26.624 62.976 39.936 130.048 39.936 199.168s-13.312 136.192-39.936 199.168zM194.048 415.232c6.144 14.848 12.8 29.184 20.48 43.008h4.096c39.936 0 72.704 32.256 72.704 72.704 0 10.752-2.56 21.504-6.656 30.72 9.728 11.264 19.968 22.016 30.208 32.768 11.264 11.264 23.04 22.016 35.328 32.256 6.656-26.112 15.36-51.712 26.112-76.288 28.16-66.56 68.096-125.952 119.296-177.152 44.032-44.032 94.208-79.872 149.504-107.008-2.048-2.048-4.096-4.608-6.144-6.656-25.088-26.112-52.224-50.176-80.896-72.192-11.776 8.704-26.624 13.312-41.984 13.312-27.136 0-50.688-14.848-62.976-36.864-64.512 15.872-125.952 42.496-181.76 80.384-38.4 25.6-73.216 55.808-103.424 89.6 6.144 28.16 14.848 55.296 26.112 81.408z m485.376-195.072c7.168 7.68 14.336 14.848 20.992 22.528 46.592-16.896 94.72-27.136 143.872-30.72-74.752-38.912-158.208-60.416-243.712-62.976 28.16 22.016 54.272 45.568 78.848 71.168z m287.232 163.84c0-32.256-3.072-64.512-9.728-95.232-7.68-6.656-15.36-12.8-23.04-18.944-14.848-1.536-29.696-2.048-45.056-2.048-51.2 0-100.864 7.68-148.992 22.528 27.136 35.84 51.2 73.728 71.68 113.664h3.072c39.936 0 72.704 32.256 72.704 72.704 0 21.504-9.216 40.448-23.552 53.76 10.752 35.84 19.456 72.192 25.088 109.056 16.896-24.576 31.232-50.688 42.496-78.336 23.552-55.808 35.328-115.712 35.328-177.152z m-128.512 316.928c-4.096-51.712-13.824-102.912-29.184-152.064-37.376-2.56-67.072-34.304-67.072-72.192 0-18.432 6.656-35.328 17.92-48.128-21.504-41.472-47.104-80.896-76.288-117.248-55.296 24.576-104.96 59.392-147.968 102.4-46.08 46.08-81.92 99.328-107.008 158.72-12.8 29.696-22.016 60.416-28.672 91.648 29.696 19.968 60.928 36.864 93.696 50.688 69.632 29.184 143.36 44.032 219.136 44.032 20.48 0 40.96-1.024 60.928-3.072 20.992-14.848 40.96-31.744 59.904-50.176l4.608-4.608zM659.968 814.08c-65.024-5.632-128.512-20.992-188.416-46.592-28.16-11.776-54.784-25.6-80.384-40.96-1.024 13.312-1.536 26.624-1.536 40.448 0 18.944 1.024 37.376 3.072 55.808 38.4 10.752 78.848 15.872 119.296 15.872 51.2 0 100.864-8.192 147.968-24.576zM190.464 705.536c41.472 41.472 89.088 73.728 142.848 96.768-1.024-11.776-1.024-23.552-1.024-35.328 0-26.112 1.536-51.712 5.12-77.312-22.016-16.896-43.008-35.328-62.976-55.296-11.264-11.264-22.016-23.04-32.256-34.816-7.168 2.56-14.848 3.584-23.04 3.584-39.936 0-72.704-32.256-72.704-72.704 0-17.92 6.656-34.304 17.408-47.104-7.68-14.848-15.36-30.72-22.016-46.592-6.656-15.872-12.8-31.744-17.92-48.128-21.504 30.208-39.424 62.976-54.272 97.28 5.632 25.6 13.824 50.176 24.064 74.24C115.712 615.424 148.48 664.064 190.464 705.536z m-133.12-319.488c14.336-23.04 30.208-45.568 47.616-66.56-7.168-36.352-11.264-74.24-12.288-111.616-23.552 55.808-35.328 115.2-35.328 176.64v1.536z m100.864-287.744c-5.632 32.256-8.704 65.024-8.704 97.792 0 23.552 1.536 47.104 4.096 69.632 26.112-25.088 54.272-48.128 84.48-68.608 59.392-40.448 124.928-69.632 193.024-87.04-70.656-33.792-145.92-55.808-223.232-65.024-6.144 5.632-11.776 11.264-17.92 16.896-10.752 11.776-21.504 24.064-31.744 36.352z m675.328-35.84c-41.984-41.984-90.112-74.752-144.384-97.28-55.808-23.552-115.712-35.84-177.152-35.84s-120.832 11.776-177.152 35.84c-22.016 9.216-43.008 20.48-62.976 32.768 66.56 12.8 130.56 34.816 191.488 64.512l11.776 5.632c11.776-7.68 25.6-12.288 40.448-12.288 26.624 0 49.664 14.336 62.464 35.84h7.68c121.344 0 239.104 35.328 339.456 100.864-23.04-48.128-53.76-92.16-91.648-130.048z"  horiz-adv-x="1024" />

    
    </font>
</defs>
</svg>
